M48
METRIC,LZ,000.000
;FILE_FORMAT=3:3
;TYPE=PLATED
;Layer: PTH_Through
;EasyEDA v6.5.38, 2023-12-01 04:26:50
;a14715bac62b4674aedb9b46894eb211,1c5aeea7b1c04971ae88c05baabc065b,10
;Gerber Generator version 0.2
;Holesize 1 = 0.305 mm
T01C0.305
;Holesize 2 = 0.306 mm
T02C0.306
;Holesize 3 = 0.501 mm
T03C0.501
;Holesize 4 = 0.889 mm
T04C0.889
;Holesize 5 = 0.915 mm
T05C0.915
%
G05
G90
T01
X021606Y048387
X021606Y047387
X023605Y048387
X023605Y047387
X021606Y049387
X023606Y049387
X022606Y048387
X022605Y049386
X022606Y047387
T02
X022944Y055038
X013172Y050748
X025215Y046187
X016792Y043926
X013041Y042784
X021209Y057707
X011092Y039467
X027394Y052725
X028111Y041709
X027001Y043465
X030988Y058578
X019359Y054414
X019204Y043012
X024893Y044075
X023998Y041673
X016430Y040853
X031666Y056642
X025605Y055161
X020005Y048782
X015723Y052458
X016887Y048979
X025143Y049101
X029882Y050477
X013219Y049965
X015576Y060178
X015466Y057678
X010167Y045443
X013515Y046973
X015592Y045514
X016521Y045311
X011114Y047415
T03
X013320Y053028G85X014570Y053028
X013320Y064828G85X014570Y064828
X009971Y064828G85X011221Y064828
X009971Y053028G85X011221Y053028
T04
X032004Y050292
X032004Y047752
T05
X032004Y045212
M30
