G04 Layer: InnerLayer1*
G04 EasyEDA v6.5.38, 2023-12-01 04:26:50*
G04 a14715bac62b4674aedb9b46894eb211,1c5aeea7b1c04971ae88c05baabc065b,10*
G04 Gerber Generator version 0.2*
G04 Scale: 100 percent, Rotated: No, Reflected: No *
G04 Dimensions in millimeters *
G04 leading zeros omitted , absolute positions ,4 integer and 5 decimal *
%FSLAX45Y45*%
%MOMM*%

%ADD10C,0.2540*%
%ADD11R,1.5748X1.5748*%
%ADD12C,1.5748*%
%ADD13O,2.2500082X0.9999979999999999*%
%ADD14C,0.6096*%
%ADD15C,0.6100*%
%ADD16C,0.0174*%

%LPD*%
G36*
X736092Y3658108D02*
G01*
X732180Y3658870D01*
X728929Y3661105D01*
X726694Y3664356D01*
X725932Y3668268D01*
X725932Y5339130D01*
X736498Y6555841D01*
X737311Y6559702D01*
X739495Y6562953D01*
X742797Y6565138D01*
X746658Y6565900D01*
X951737Y6565900D01*
X956005Y6564934D01*
X959510Y6562293D01*
X961542Y6558381D01*
X961745Y6553962D01*
X960069Y6549898D01*
X956818Y6546951D01*
X954328Y6545478D01*
X945438Y6538417D01*
X937717Y6530085D01*
X931316Y6520738D01*
X926439Y6510528D01*
X923086Y6499707D01*
X921359Y6488480D01*
X921359Y6477152D01*
X923086Y6465925D01*
X926439Y6455054D01*
X931316Y6444843D01*
X937717Y6435496D01*
X945438Y6427165D01*
X954328Y6420104D01*
X964133Y6414414D01*
X974699Y6410299D01*
X985723Y6407759D01*
X997407Y6406896D01*
X1121664Y6406896D01*
X1133348Y6407759D01*
X1144422Y6410299D01*
X1154988Y6414414D01*
X1164793Y6420104D01*
X1173683Y6427165D01*
X1181354Y6435496D01*
X1187754Y6444843D01*
X1192682Y6455054D01*
X1196035Y6465925D01*
X1197711Y6477152D01*
X1197711Y6488480D01*
X1196035Y6499707D01*
X1192682Y6510528D01*
X1187754Y6520738D01*
X1181354Y6530085D01*
X1173683Y6538417D01*
X1164793Y6545478D01*
X1162304Y6546951D01*
X1159052Y6549898D01*
X1157376Y6553962D01*
X1157579Y6558381D01*
X1159611Y6562293D01*
X1163066Y6564934D01*
X1167384Y6565900D01*
X1286713Y6565900D01*
X1291031Y6564934D01*
X1294485Y6562293D01*
X1296517Y6558381D01*
X1296720Y6553962D01*
X1295044Y6549898D01*
X1291793Y6546951D01*
X1289304Y6545478D01*
X1280414Y6538417D01*
X1272743Y6530085D01*
X1266342Y6520738D01*
X1261414Y6510528D01*
X1258062Y6499707D01*
X1256385Y6488480D01*
X1256385Y6477152D01*
X1258062Y6465925D01*
X1261414Y6455054D01*
X1266342Y6444843D01*
X1272743Y6435496D01*
X1280414Y6427165D01*
X1289304Y6420104D01*
X1299108Y6414414D01*
X1309674Y6410299D01*
X1320749Y6407759D01*
X1332433Y6406896D01*
X1456690Y6406896D01*
X1468374Y6407759D01*
X1479397Y6410299D01*
X1489964Y6414414D01*
X1499819Y6420104D01*
X1508658Y6427165D01*
X1516380Y6435496D01*
X1522780Y6444843D01*
X1527708Y6455054D01*
X1531010Y6465925D01*
X1532737Y6477152D01*
X1532737Y6488480D01*
X1531010Y6499707D01*
X1527708Y6510528D01*
X1522780Y6520738D01*
X1516380Y6530085D01*
X1508658Y6538417D01*
X1499819Y6545478D01*
X1497279Y6546951D01*
X1494028Y6549898D01*
X1492351Y6553962D01*
X1492554Y6558381D01*
X1494586Y6562293D01*
X1498092Y6564934D01*
X1502359Y6565900D01*
X3280410Y6565900D01*
X3405682Y6565493D01*
X3409543Y6564731D01*
X3412845Y6562496D01*
X3415029Y6559245D01*
X3415792Y6555333D01*
X3415792Y4353560D01*
X3415029Y4349648D01*
X3412794Y4346397D01*
X3409543Y4344162D01*
X3405632Y4343400D01*
X2766110Y4343400D01*
X2762402Y4344111D01*
X2759252Y4346092D01*
X2756966Y4349089D01*
X2755950Y4352696D01*
X2755646Y4356252D01*
X2753106Y4365752D01*
X2748991Y4374642D01*
X2743352Y4382668D01*
X2736392Y4389628D01*
X2728315Y4395266D01*
X2719425Y4399432D01*
X2709926Y4401972D01*
X2700172Y4402836D01*
X2690368Y4401972D01*
X2680868Y4399432D01*
X2671978Y4395266D01*
X2663901Y4389628D01*
X2656992Y4382668D01*
X2651353Y4374642D01*
X2647188Y4365752D01*
X2644648Y4356252D01*
X2644343Y4352696D01*
X2643327Y4349089D01*
X2641092Y4346092D01*
X2637891Y4344111D01*
X2634183Y4343400D01*
X2527960Y4343400D01*
X2523794Y4344314D01*
X2520340Y4346803D01*
X2518257Y4350512D01*
X2517851Y4354728D01*
X2519222Y4358792D01*
X2522118Y4361891D01*
X2525522Y4364278D01*
X2532481Y4371238D01*
X2538120Y4379264D01*
X2542286Y4388205D01*
X2544826Y4397654D01*
X2545689Y4407458D01*
X2544826Y4417263D01*
X2542286Y4426762D01*
X2538120Y4435652D01*
X2532481Y4443679D01*
X2525522Y4450638D01*
X2517495Y4456277D01*
X2508605Y4460443D01*
X2499106Y4462983D01*
X2489301Y4463846D01*
X2479497Y4462983D01*
X2470048Y4460443D01*
X2461107Y4456277D01*
X2453081Y4450638D01*
X2451455Y4449013D01*
X2448153Y4446828D01*
X2444242Y4446066D01*
X2027174Y4446066D01*
X2019147Y4445254D01*
X2011934Y4443069D01*
X2005228Y4439513D01*
X1999030Y4434382D01*
X1924964Y4360316D01*
X1922068Y4358335D01*
X1918665Y4357420D01*
X1910638Y4356709D01*
X1901139Y4354169D01*
X1892249Y4350004D01*
X1885442Y4345228D01*
X1882648Y4343857D01*
X1879600Y4343400D01*
X1732788Y4343400D01*
X1728520Y4344365D01*
X1725015Y4347006D01*
X1722983Y4350918D01*
X1722780Y4355338D01*
X1724456Y4359402D01*
X1728012Y4364431D01*
X1732178Y4373372D01*
X1734718Y4382820D01*
X1735582Y4392625D01*
X1734718Y4402429D01*
X1732178Y4411929D01*
X1728012Y4420819D01*
X1722374Y4428845D01*
X1715414Y4435805D01*
X1707388Y4441444D01*
X1698498Y4445609D01*
X1688998Y4448149D01*
X1679193Y4449013D01*
X1669389Y4448149D01*
X1659940Y4445609D01*
X1651000Y4441444D01*
X1642973Y4435805D01*
X1641348Y4434230D01*
X1638046Y4431995D01*
X1634185Y4431233D01*
X1418793Y4431233D01*
X1410766Y4430420D01*
X1403553Y4428236D01*
X1396898Y4424680D01*
X1390650Y4419600D01*
X1308608Y4337507D01*
X1305712Y4335526D01*
X1302308Y4334611D01*
X1294282Y4333900D01*
X1284782Y4331360D01*
X1275892Y4327194D01*
X1267815Y4321556D01*
X1260906Y4314596D01*
X1255268Y4306570D01*
X1251102Y4297680D01*
X1248562Y4288180D01*
X1247698Y4278376D01*
X1248562Y4268571D01*
X1251102Y4259122D01*
X1255268Y4250182D01*
X1260906Y4242155D01*
X1267815Y4235196D01*
X1275892Y4229557D01*
X1284782Y4225391D01*
X1294282Y4222851D01*
X1304086Y4221988D01*
X1313840Y4222851D01*
X1323340Y4225391D01*
X1332230Y4229557D01*
X1340307Y4235196D01*
X1347266Y4242155D01*
X1352905Y4250182D01*
X1357020Y4259122D01*
X1359560Y4268571D01*
X1360271Y4276648D01*
X1361186Y4280052D01*
X1363218Y4282948D01*
X1431340Y4351020D01*
X1434642Y4353255D01*
X1438503Y4354017D01*
X1615541Y4354017D01*
X1619707Y4353102D01*
X1623161Y4350562D01*
X1625244Y4346803D01*
X1625600Y4342485D01*
X1625600Y4145635D01*
X1624888Y4141876D01*
X1622806Y4138676D01*
X1619758Y4136440D01*
X1614779Y4134154D01*
X1606753Y4128515D01*
X1599793Y4121556D01*
X1594154Y4113479D01*
X1589989Y4104589D01*
X1587449Y4095089D01*
X1586585Y4085336D01*
X1587449Y4075531D01*
X1589989Y4066032D01*
X1594154Y4057142D01*
X1599793Y4049064D01*
X1606753Y4042156D01*
X1614779Y4036517D01*
X1619758Y4034180D01*
X1622806Y4031945D01*
X1624888Y4028744D01*
X1625600Y4024985D01*
X1625600Y3668268D01*
X1624838Y3664356D01*
X1622602Y3661105D01*
X1619351Y3658870D01*
X1615440Y3658108D01*
G37*

%LPC*%
G36*
X1109218Y3890314D02*
G01*
X1118971Y3891178D01*
X1128471Y3893718D01*
X1137361Y3897884D01*
X1145438Y3903522D01*
X1152398Y3910431D01*
X1158036Y3918508D01*
X1162151Y3927398D01*
X1164691Y3936898D01*
X1165555Y3946702D01*
X1164691Y3956456D01*
X1162151Y3965956D01*
X1158036Y3974846D01*
X1152398Y3982923D01*
X1145438Y3989882D01*
X1137361Y3995521D01*
X1128471Y3999636D01*
X1118971Y4002176D01*
X1109218Y4003040D01*
X1099413Y4002176D01*
X1089914Y3999636D01*
X1081024Y3995521D01*
X1072946Y3989882D01*
X1066038Y3982923D01*
X1060399Y3974846D01*
X1056233Y3965956D01*
X1053693Y3956456D01*
X1052830Y3946702D01*
X1053693Y3936898D01*
X1056233Y3927398D01*
X1060399Y3918508D01*
X1066038Y3910431D01*
X1072946Y3903522D01*
X1081024Y3897884D01*
X1089914Y3893718D01*
X1099413Y3891178D01*
G37*
G36*
X3246120Y4427321D02*
G01*
X3252724Y4430572D01*
X3264103Y4438192D01*
X3274364Y4447235D01*
X3283407Y4457496D01*
X3291027Y4468876D01*
X3294278Y4475480D01*
X3246120Y4475480D01*
G37*
G36*
X3154680Y4427321D02*
G01*
X3154680Y4475480D01*
X3106521Y4475480D01*
X3109772Y4468876D01*
X3117392Y4457496D01*
X3126435Y4447235D01*
X3136696Y4438192D01*
X3148076Y4430572D01*
G37*
G36*
X1652117Y4474718D02*
G01*
X1661871Y4475581D01*
X1671370Y4478121D01*
X1680260Y4482287D01*
X1688338Y4487926D01*
X1695297Y4494834D01*
X1700936Y4502912D01*
X1705051Y4511802D01*
X1707591Y4521301D01*
X1708454Y4531106D01*
X1707591Y4540859D01*
X1705051Y4550359D01*
X1700936Y4559249D01*
X1695297Y4567326D01*
X1688338Y4574286D01*
X1680260Y4579924D01*
X1671370Y4584039D01*
X1663954Y4586020D01*
X1661515Y4587036D01*
X1659382Y4588662D01*
X1465224Y4782870D01*
X1458976Y4787950D01*
X1452321Y4791506D01*
X1445107Y4793691D01*
X1437081Y4794504D01*
X1131925Y4794504D01*
X1129284Y4794859D01*
X1121156Y4797044D01*
X1111351Y4797907D01*
X1101547Y4797044D01*
X1092098Y4794504D01*
X1083157Y4790338D01*
X1075131Y4784699D01*
X1068171Y4777740D01*
X1062532Y4769713D01*
X1058367Y4760823D01*
X1055827Y4751324D01*
X1054963Y4741519D01*
X1055827Y4731715D01*
X1058367Y4722266D01*
X1062532Y4713325D01*
X1068171Y4705299D01*
X1075131Y4698339D01*
X1083157Y4692700D01*
X1092098Y4688535D01*
X1101547Y4685995D01*
X1111351Y4685131D01*
X1121156Y4685995D01*
X1130655Y4688535D01*
X1139545Y4692700D01*
X1147572Y4698339D01*
X1154531Y4705299D01*
X1159916Y4712970D01*
X1162151Y4715256D01*
X1165047Y4716780D01*
X1168247Y4717288D01*
X1285748Y4717288D01*
X1289862Y4716424D01*
X1293215Y4713986D01*
X1295349Y4710379D01*
X1295857Y4706264D01*
X1295095Y4697323D01*
X1295958Y4687519D01*
X1298498Y4678070D01*
X1302664Y4669129D01*
X1308303Y4661103D01*
X1315212Y4654143D01*
X1323289Y4648504D01*
X1332179Y4644339D01*
X1341678Y4641799D01*
X1351483Y4640935D01*
X1361236Y4641799D01*
X1370736Y4644339D01*
X1379626Y4648504D01*
X1387703Y4654143D01*
X1394663Y4661103D01*
X1400302Y4669129D01*
X1404416Y4678070D01*
X1406956Y4687519D01*
X1407820Y4697323D01*
X1407058Y4706264D01*
X1407566Y4710379D01*
X1409700Y4713986D01*
X1413103Y4716424D01*
X1417370Y4717288D01*
X1421231Y4716526D01*
X1424533Y4714290D01*
X1526895Y4611928D01*
X1529283Y4608220D01*
X1529842Y4603902D01*
X1528521Y4599686D01*
X1525574Y4596434D01*
X1522933Y4594606D01*
X1516024Y4587646D01*
X1510385Y4579620D01*
X1506220Y4570730D01*
X1503680Y4561230D01*
X1502816Y4551426D01*
X1503680Y4541621D01*
X1506220Y4532172D01*
X1510385Y4523232D01*
X1516024Y4515205D01*
X1522933Y4508246D01*
X1531010Y4502607D01*
X1539900Y4498441D01*
X1549400Y4495901D01*
X1559204Y4495038D01*
X1568958Y4495901D01*
X1578457Y4498441D01*
X1587347Y4502607D01*
X1589836Y4504334D01*
X1593494Y4505960D01*
X1597456Y4506061D01*
X1601165Y4504588D01*
X1604010Y4501845D01*
X1608937Y4494834D01*
X1615846Y4487926D01*
X1623923Y4482287D01*
X1632813Y4478121D01*
X1642313Y4475581D01*
G37*
G36*
X1016711Y4487926D02*
G01*
X1026515Y4488789D01*
X1036015Y4491329D01*
X1044905Y4495495D01*
X1052931Y4501134D01*
X1059891Y4508042D01*
X1065530Y4516120D01*
X1069695Y4525010D01*
X1072235Y4534509D01*
X1073099Y4544314D01*
X1072235Y4554067D01*
X1069695Y4563567D01*
X1065530Y4572457D01*
X1059891Y4580534D01*
X1052931Y4587494D01*
X1044905Y4593132D01*
X1036015Y4597247D01*
X1026515Y4599787D01*
X1016711Y4600651D01*
X1006906Y4599787D01*
X997458Y4597247D01*
X988517Y4593132D01*
X980490Y4587494D01*
X973531Y4580534D01*
X967892Y4572457D01*
X963726Y4563567D01*
X961186Y4554067D01*
X960323Y4544314D01*
X961186Y4534509D01*
X963726Y4525010D01*
X967892Y4516120D01*
X973531Y4508042D01*
X980490Y4501134D01*
X988517Y4495495D01*
X997458Y4491329D01*
X1006906Y4488789D01*
G37*
G36*
X2521559Y4562297D02*
G01*
X2531313Y4563160D01*
X2540812Y4565700D01*
X2549702Y4569866D01*
X2557780Y4575505D01*
X2564739Y4582464D01*
X2570378Y4590491D01*
X2574493Y4599432D01*
X2577033Y4608880D01*
X2577896Y4618685D01*
X2577033Y4628489D01*
X2574493Y4637989D01*
X2570378Y4646879D01*
X2564739Y4654905D01*
X2557780Y4661865D01*
X2549702Y4667504D01*
X2540812Y4671669D01*
X2531313Y4674209D01*
X2521559Y4675073D01*
X2511755Y4674209D01*
X2502255Y4671669D01*
X2493365Y4667504D01*
X2485288Y4661865D01*
X2478379Y4654905D01*
X2472740Y4646879D01*
X2468575Y4637989D01*
X2466035Y4628489D01*
X2465171Y4618685D01*
X2466035Y4608880D01*
X2468575Y4599432D01*
X2472740Y4590491D01*
X2478379Y4582464D01*
X2485288Y4575505D01*
X2493365Y4569866D01*
X2502255Y4565700D01*
X2511755Y4563160D01*
G37*
G36*
X3106521Y4566920D02*
G01*
X3154680Y4566920D01*
X3154680Y4615078D01*
X3148076Y4611827D01*
X3136696Y4604207D01*
X3126435Y4595164D01*
X3117392Y4584903D01*
X3109772Y4573524D01*
G37*
G36*
X3246120Y4566920D02*
G01*
X3294278Y4566920D01*
X3291027Y4573524D01*
X3283407Y4584903D01*
X3274364Y4595164D01*
X3264103Y4604207D01*
X3252724Y4611827D01*
X3246120Y4615078D01*
G37*
G36*
X3200400Y4670552D02*
G01*
X3214065Y4671466D01*
X3227476Y4674158D01*
X3240430Y4678527D01*
X3252724Y4684572D01*
X3264103Y4692192D01*
X3274364Y4701235D01*
X3283407Y4711496D01*
X3291027Y4722876D01*
X3297072Y4735169D01*
X3301441Y4748123D01*
X3304133Y4761534D01*
X3305048Y4775200D01*
X3304133Y4788865D01*
X3301441Y4802276D01*
X3297072Y4815230D01*
X3291027Y4827524D01*
X3283407Y4838903D01*
X3274364Y4849164D01*
X3264103Y4858207D01*
X3252724Y4865827D01*
X3240430Y4871872D01*
X3227476Y4876241D01*
X3214065Y4878933D01*
X3200400Y4879848D01*
X3186734Y4878933D01*
X3173323Y4876241D01*
X3164840Y4873396D01*
X3161131Y4872837D01*
X3157474Y4873701D01*
X3154375Y4875834D01*
X3122980Y4907229D01*
X3120796Y4910480D01*
X3120034Y4914392D01*
X3120796Y4918303D01*
X3122980Y4921554D01*
X3126282Y4923790D01*
X3130194Y4924552D01*
X3278581Y4924552D01*
X3284880Y4925263D01*
X3290366Y4927193D01*
X3295243Y4930241D01*
X3299358Y4934356D01*
X3302406Y4939233D01*
X3304336Y4944719D01*
X3305048Y4951018D01*
X3305048Y5107381D01*
X3304336Y5113680D01*
X3302406Y5119166D01*
X3299358Y5124043D01*
X3295243Y5128158D01*
X3290366Y5131206D01*
X3284880Y5133136D01*
X3278581Y5133848D01*
X3122218Y5133848D01*
X3115919Y5133136D01*
X3110433Y5131206D01*
X3105556Y5128158D01*
X3101441Y5124043D01*
X3098393Y5119166D01*
X3096463Y5113680D01*
X3095752Y5105908D01*
X3094990Y5101996D01*
X3092754Y5098694D01*
X3089503Y5096510D01*
X3085592Y5095748D01*
X3081680Y5096510D01*
X3078429Y5098694D01*
X2708757Y5468366D01*
X2702509Y5473496D01*
X2695854Y5477052D01*
X2688640Y5479237D01*
X2680614Y5480050D01*
X2621584Y5480050D01*
X2617622Y5480812D01*
X2614269Y5483148D01*
X2612085Y5486552D01*
X2611424Y5490565D01*
X2612390Y5494477D01*
X2613456Y5496814D01*
X2615996Y5506262D01*
X2616860Y5516067D01*
X2615996Y5525871D01*
X2613456Y5535371D01*
X2609291Y5544261D01*
X2603652Y5552287D01*
X2596692Y5559247D01*
X2588666Y5564886D01*
X2579776Y5569051D01*
X2570276Y5571591D01*
X2560472Y5572455D01*
X2550668Y5571591D01*
X2541219Y5569051D01*
X2532278Y5564886D01*
X2524252Y5559247D01*
X2517292Y5552287D01*
X2511653Y5544261D01*
X2507488Y5535371D01*
X2504948Y5525871D01*
X2504084Y5516067D01*
X2504948Y5506262D01*
X2507488Y5496814D01*
X2508605Y5494477D01*
X2509520Y5490565D01*
X2508859Y5486552D01*
X2506675Y5483148D01*
X2503322Y5480812D01*
X2499360Y5480050D01*
X2359355Y5480050D01*
X2355748Y5480710D01*
X2352598Y5482640D01*
X2350312Y5485587D01*
X2349246Y5489143D01*
X2350719Y5503773D01*
X2349855Y5513578D01*
X2347315Y5523077D01*
X2343200Y5531967D01*
X2337562Y5539994D01*
X2330602Y5546953D01*
X2322525Y5552592D01*
X2313635Y5556758D01*
X2304135Y5559298D01*
X2294382Y5560161D01*
X2284577Y5559298D01*
X2275078Y5556758D01*
X2266188Y5552592D01*
X2258110Y5546953D01*
X2251202Y5539994D01*
X2245563Y5531967D01*
X2241397Y5523077D01*
X2238857Y5513578D01*
X2237994Y5503773D01*
X2239467Y5489143D01*
X2238400Y5485587D01*
X2236165Y5482640D01*
X2232964Y5480710D01*
X2229358Y5480050D01*
X1980946Y5480050D01*
X1977034Y5480812D01*
X1973732Y5482996D01*
X1972157Y5484622D01*
X1964080Y5490260D01*
X1955190Y5494375D01*
X1945690Y5496915D01*
X1935937Y5497779D01*
X1926132Y5496915D01*
X1916633Y5494375D01*
X1907743Y5490260D01*
X1899666Y5484622D01*
X1892757Y5477662D01*
X1887118Y5469585D01*
X1882952Y5460695D01*
X1880412Y5451195D01*
X1879549Y5441442D01*
X1880412Y5431637D01*
X1882952Y5422138D01*
X1887118Y5413248D01*
X1892757Y5405170D01*
X1899666Y5398262D01*
X1907743Y5392623D01*
X1916633Y5388457D01*
X1926132Y5385917D01*
X1935937Y5385054D01*
X1945690Y5385917D01*
X1955190Y5388457D01*
X1964080Y5392623D01*
X1972157Y5398262D01*
X1973732Y5399836D01*
X1977034Y5402021D01*
X1980946Y5402834D01*
X2660904Y5402834D01*
X2664764Y5402021D01*
X2668066Y5399836D01*
X2725267Y5342636D01*
X2727604Y5339080D01*
X2728264Y5334914D01*
X2727147Y5330850D01*
X2724505Y5327548D01*
X2711196Y5321350D01*
X2703169Y5315712D01*
X2696210Y5308752D01*
X2690571Y5300675D01*
X2686405Y5291785D01*
X2683865Y5282285D01*
X2683002Y5272532D01*
X2683865Y5262727D01*
X2686405Y5253228D01*
X2690571Y5244338D01*
X2696210Y5236260D01*
X2703169Y5229352D01*
X2711196Y5223713D01*
X2720136Y5219547D01*
X2729585Y5217007D01*
X2739390Y5216144D01*
X2749194Y5217007D01*
X2758694Y5219547D01*
X2767584Y5223713D01*
X2775610Y5229352D01*
X2782570Y5236260D01*
X2788208Y5244338D01*
X2792526Y5253837D01*
X2794457Y5257596D01*
X2797708Y5260238D01*
X2801823Y5261356D01*
X2805988Y5260695D01*
X2809544Y5258409D01*
X2958134Y5109768D01*
X2960522Y5106060D01*
X2961081Y5101691D01*
X2959760Y5097526D01*
X2956763Y5094274D01*
X2951988Y5090922D01*
X2945079Y5083962D01*
X2939440Y5075936D01*
X2935274Y5067046D01*
X2932734Y5057546D01*
X2932023Y5049469D01*
X2931109Y5046065D01*
X2929077Y5043170D01*
X2837535Y4951628D01*
X2834233Y4949444D01*
X2830322Y4948682D01*
X2559354Y4948682D01*
X2555494Y4949444D01*
X2552192Y4951628D01*
X2550566Y4953254D01*
X2542540Y4958892D01*
X2533650Y4963007D01*
X2524150Y4965547D01*
X2514346Y4966411D01*
X2504541Y4965547D01*
X2495092Y4963007D01*
X2486152Y4958892D01*
X2478125Y4953254D01*
X2471166Y4946294D01*
X2465527Y4938217D01*
X2461361Y4929327D01*
X2458821Y4919827D01*
X2457958Y4910074D01*
X2458821Y4900269D01*
X2461361Y4890770D01*
X2465527Y4881880D01*
X2471166Y4873802D01*
X2478125Y4866894D01*
X2486152Y4861255D01*
X2495092Y4857089D01*
X2504541Y4854549D01*
X2514346Y4853686D01*
X2524150Y4854549D01*
X2533650Y4857089D01*
X2542540Y4861255D01*
X2550566Y4866894D01*
X2552192Y4868468D01*
X2555494Y4870653D01*
X2559354Y4871466D01*
X2850032Y4871466D01*
X2858058Y4872228D01*
X2865323Y4874412D01*
X2871978Y4877968D01*
X2878175Y4883099D01*
X2983687Y4988610D01*
X2986582Y4990592D01*
X2989986Y4991506D01*
X2998012Y4992217D01*
X3002686Y4993487D01*
X3006344Y4993792D01*
X3009900Y4992725D01*
X3012846Y4990439D01*
X3014776Y4987290D01*
X3015488Y4983683D01*
X3015488Y4922012D01*
X3016250Y4913985D01*
X3018434Y4906772D01*
X3021990Y4900117D01*
X3027121Y4893868D01*
X3099765Y4821224D01*
X3101898Y4818126D01*
X3102762Y4814468D01*
X3102203Y4810760D01*
X3099358Y4802276D01*
X3096666Y4788865D01*
X3095752Y4775200D01*
X3096666Y4761534D01*
X3099358Y4748123D01*
X3103727Y4735169D01*
X3109772Y4722876D01*
X3117392Y4711496D01*
X3126435Y4701235D01*
X3136696Y4692192D01*
X3148076Y4684572D01*
X3160369Y4678527D01*
X3173323Y4674158D01*
X3186734Y4671466D01*
G37*
G36*
X2000504Y4821783D02*
G01*
X2010308Y4822647D01*
X2019807Y4825187D01*
X2028698Y4829352D01*
X2036724Y4834991D01*
X2043684Y4841951D01*
X2049322Y4849977D01*
X2053488Y4858918D01*
X2056028Y4868367D01*
X2056892Y4878171D01*
X2056028Y4887976D01*
X2053488Y4897475D01*
X2049322Y4906365D01*
X2043684Y4914392D01*
X2036724Y4921351D01*
X2028698Y4926990D01*
X2019807Y4931156D01*
X2010308Y4933696D01*
X2000504Y4934559D01*
X1990699Y4933696D01*
X1981250Y4931156D01*
X1972310Y4926990D01*
X1964283Y4921351D01*
X1957324Y4914392D01*
X1951685Y4906365D01*
X1947519Y4897475D01*
X1944979Y4887976D01*
X1944116Y4878171D01*
X1944979Y4868367D01*
X1947519Y4858918D01*
X1951685Y4849977D01*
X1957324Y4841951D01*
X1964283Y4834991D01*
X1972310Y4829352D01*
X1981250Y4825187D01*
X1990699Y4822647D01*
G37*
G36*
X1688744Y4841494D02*
G01*
X1698498Y4842357D01*
X1707997Y4844897D01*
X1716887Y4849063D01*
X1724964Y4854702D01*
X1731924Y4861661D01*
X1737563Y4869688D01*
X1741678Y4878628D01*
X1744218Y4888077D01*
X1745081Y4897882D01*
X1744218Y4907686D01*
X1741678Y4917186D01*
X1737563Y4926076D01*
X1731924Y4934102D01*
X1724964Y4941062D01*
X1716887Y4946700D01*
X1707997Y4950866D01*
X1698498Y4953406D01*
X1690471Y4954117D01*
X1687068Y4955032D01*
X1684172Y4957013D01*
X1613865Y5027371D01*
X1611630Y5030673D01*
X1610868Y5034534D01*
X1610868Y5200751D01*
X1611630Y5204612D01*
X1613865Y5207914D01*
X1615440Y5209540D01*
X1621078Y5217566D01*
X1625244Y5226507D01*
X1627784Y5235956D01*
X1628648Y5245760D01*
X1627784Y5255564D01*
X1625244Y5265064D01*
X1621078Y5273954D01*
X1615440Y5281980D01*
X1608480Y5288940D01*
X1600454Y5294579D01*
X1591564Y5298744D01*
X1582064Y5301284D01*
X1572260Y5302148D01*
X1562455Y5301284D01*
X1553006Y5298744D01*
X1547164Y5296001D01*
X1543253Y5295087D01*
X1539240Y5295747D01*
X1535836Y5297932D01*
X1533499Y5301284D01*
X1532737Y5305247D01*
X1532737Y5308447D01*
X1531010Y5319674D01*
X1527708Y5330545D01*
X1522780Y5340756D01*
X1516380Y5350103D01*
X1508658Y5358434D01*
X1499819Y5365496D01*
X1489964Y5371185D01*
X1479397Y5375300D01*
X1468374Y5377840D01*
X1456690Y5378704D01*
X1332433Y5378704D01*
X1320749Y5377840D01*
X1309674Y5375300D01*
X1299108Y5371185D01*
X1289304Y5365496D01*
X1280414Y5358434D01*
X1272743Y5350103D01*
X1266342Y5340756D01*
X1261414Y5330545D01*
X1258062Y5319674D01*
X1256385Y5308447D01*
X1256385Y5297119D01*
X1258062Y5285892D01*
X1261414Y5275072D01*
X1266342Y5264861D01*
X1272743Y5255514D01*
X1280414Y5247182D01*
X1289304Y5240121D01*
X1299108Y5234432D01*
X1309674Y5230317D01*
X1320749Y5227777D01*
X1332433Y5226913D01*
X1456690Y5226913D01*
X1468374Y5227777D01*
X1479397Y5230317D01*
X1489964Y5234432D01*
X1504289Y5242661D01*
X1508252Y5242966D01*
X1512062Y5241747D01*
X1515110Y5239105D01*
X1516888Y5235549D01*
X1519275Y5226507D01*
X1523441Y5217566D01*
X1529080Y5209540D01*
X1530654Y5207914D01*
X1532890Y5204612D01*
X1533652Y5200751D01*
X1533652Y5014823D01*
X1534464Y5006797D01*
X1536649Y4999583D01*
X1540205Y4992928D01*
X1545336Y4986680D01*
X1629562Y4902454D01*
X1631594Y4899558D01*
X1632508Y4896154D01*
X1633220Y4888077D01*
X1635760Y4878628D01*
X1639925Y4869688D01*
X1645564Y4861661D01*
X1652473Y4854702D01*
X1660550Y4849063D01*
X1669440Y4844897D01*
X1678939Y4842357D01*
G37*
G36*
X1321968Y4940147D02*
G01*
X1331722Y4941011D01*
X1341221Y4943551D01*
X1350111Y4947716D01*
X1358188Y4953355D01*
X1365148Y4960264D01*
X1370787Y4968341D01*
X1374902Y4977231D01*
X1377442Y4986731D01*
X1378305Y4996535D01*
X1377442Y5006289D01*
X1374902Y5015788D01*
X1370787Y5024678D01*
X1364792Y5033213D01*
X1363167Y5037023D01*
X1363167Y5041138D01*
X1364792Y5044897D01*
X1366012Y5046624D01*
X1370177Y5055565D01*
X1372717Y5065014D01*
X1373581Y5074818D01*
X1372717Y5084622D01*
X1370177Y5094122D01*
X1366012Y5103012D01*
X1360373Y5111038D01*
X1353413Y5117998D01*
X1345387Y5123637D01*
X1336497Y5127802D01*
X1326997Y5130342D01*
X1317193Y5131206D01*
X1307388Y5130342D01*
X1297940Y5127802D01*
X1288999Y5123637D01*
X1280972Y5117998D01*
X1274013Y5111038D01*
X1268374Y5103012D01*
X1264208Y5094122D01*
X1261668Y5084622D01*
X1260805Y5074818D01*
X1261668Y5065014D01*
X1264208Y5055565D01*
X1268374Y5046624D01*
X1274368Y5038090D01*
X1275994Y5034330D01*
X1275994Y5030216D01*
X1274368Y5026456D01*
X1273149Y5024678D01*
X1268984Y5015788D01*
X1266444Y5006289D01*
X1265580Y4996535D01*
X1266444Y4986731D01*
X1268984Y4977231D01*
X1273149Y4968341D01*
X1278788Y4960264D01*
X1285697Y4953355D01*
X1293774Y4947716D01*
X1302664Y4943551D01*
X1312164Y4941011D01*
G37*
G36*
X997407Y5226913D02*
G01*
X1121664Y5226913D01*
X1133348Y5227777D01*
X1144422Y5230317D01*
X1154988Y5234432D01*
X1164793Y5240121D01*
X1173683Y5247182D01*
X1181354Y5255514D01*
X1187754Y5264861D01*
X1192682Y5275072D01*
X1196035Y5285943D01*
X1197711Y5297119D01*
X1197711Y5308498D01*
X1196035Y5319674D01*
X1192682Y5330545D01*
X1187754Y5340756D01*
X1181354Y5350103D01*
X1173683Y5358434D01*
X1164793Y5365496D01*
X1154988Y5371185D01*
X1144422Y5375300D01*
X1133348Y5377840D01*
X1121664Y5378704D01*
X997407Y5378704D01*
X985723Y5377840D01*
X974699Y5375300D01*
X964133Y5371185D01*
X954328Y5365496D01*
X945438Y5358434D01*
X937717Y5350103D01*
X931316Y5340756D01*
X926439Y5330545D01*
X923086Y5319674D01*
X921359Y5308498D01*
X921359Y5297119D01*
X923086Y5285943D01*
X926439Y5275072D01*
X931316Y5264861D01*
X937717Y5255514D01*
X945438Y5247182D01*
X954328Y5240121D01*
X964133Y5234432D01*
X974699Y5230317D01*
X985723Y5227777D01*
G37*
G36*
X3166618Y5607812D02*
G01*
X3176371Y5608675D01*
X3185871Y5611215D01*
X3194761Y5615381D01*
X3202838Y5621020D01*
X3209798Y5627979D01*
X3215436Y5636006D01*
X3219551Y5644946D01*
X3222091Y5654395D01*
X3222955Y5664200D01*
X3222091Y5674004D01*
X3219551Y5683504D01*
X3215436Y5692394D01*
X3209798Y5700420D01*
X3202838Y5707380D01*
X3194761Y5713018D01*
X3185871Y5717184D01*
X3176371Y5719724D01*
X3166618Y5720588D01*
X3156813Y5719724D01*
X3147314Y5717184D01*
X3138424Y5713018D01*
X3130346Y5707380D01*
X3123438Y5700420D01*
X3117799Y5692394D01*
X3113633Y5683504D01*
X3111093Y5674004D01*
X3110230Y5664200D01*
X3111093Y5654395D01*
X3113633Y5644946D01*
X3117799Y5636006D01*
X3123438Y5627979D01*
X3130346Y5621020D01*
X3138424Y5615381D01*
X3147314Y5611215D01*
X3156813Y5608675D01*
G37*
G36*
X1546656Y5711444D02*
G01*
X1556410Y5712307D01*
X1565910Y5714847D01*
X1574800Y5719013D01*
X1582877Y5724652D01*
X1589836Y5731560D01*
X1595475Y5739638D01*
X1599590Y5748528D01*
X1602130Y5758027D01*
X1602994Y5767832D01*
X1602130Y5777585D01*
X1599590Y5787085D01*
X1595475Y5795975D01*
X1589836Y5804052D01*
X1582877Y5811012D01*
X1574800Y5816650D01*
X1565910Y5820765D01*
X1556410Y5823305D01*
X1546656Y5824169D01*
X1536852Y5823305D01*
X1527352Y5820765D01*
X1518462Y5816650D01*
X1510385Y5811012D01*
X1503476Y5804052D01*
X1497838Y5795975D01*
X1493672Y5787085D01*
X1491132Y5777585D01*
X1490268Y5767832D01*
X1491132Y5758027D01*
X1493672Y5748528D01*
X1497838Y5739638D01*
X1503476Y5731560D01*
X1510385Y5724652D01*
X1518462Y5719013D01*
X1527352Y5714847D01*
X1536852Y5712307D01*
G37*
G36*
X3098800Y5801410D02*
G01*
X3108604Y5802274D01*
X3118104Y5804814D01*
X3126994Y5808980D01*
X3135020Y5814618D01*
X3141980Y5821527D01*
X3147618Y5829604D01*
X3151784Y5838494D01*
X3154324Y5847994D01*
X3155188Y5857798D01*
X3154324Y5867552D01*
X3151784Y5877052D01*
X3147618Y5885942D01*
X3141980Y5894019D01*
X3135020Y5900978D01*
X3126994Y5906617D01*
X3118104Y5910732D01*
X3108604Y5913272D01*
X3098800Y5914136D01*
X3088995Y5913272D01*
X3079546Y5910732D01*
X3070606Y5906617D01*
X3062579Y5900978D01*
X3055620Y5894019D01*
X3049981Y5885942D01*
X3045815Y5877052D01*
X3043275Y5867552D01*
X3042412Y5857798D01*
X3043275Y5847994D01*
X3045815Y5838494D01*
X3049981Y5829604D01*
X3055620Y5821527D01*
X3062579Y5814618D01*
X3070606Y5808980D01*
X3079546Y5804814D01*
X3088995Y5802274D01*
G37*
G36*
X1557629Y5961430D02*
G01*
X1567434Y5962294D01*
X1576933Y5964834D01*
X1585823Y5969000D01*
X1593850Y5974638D01*
X1600809Y5981547D01*
X1606448Y5989624D01*
X1610614Y5998514D01*
X1613154Y6008014D01*
X1614017Y6017818D01*
X1613154Y6027572D01*
X1610614Y6037072D01*
X1606448Y6045962D01*
X1600809Y6054039D01*
X1593850Y6060998D01*
X1585823Y6066637D01*
X1576933Y6070752D01*
X1567434Y6073292D01*
X1557629Y6074156D01*
X1547825Y6073292D01*
X1538376Y6070752D01*
X1529435Y6066637D01*
X1521409Y6060998D01*
X1514449Y6054039D01*
X1508810Y6045962D01*
X1504645Y6037072D01*
X1502105Y6027572D01*
X1501241Y6017818D01*
X1502105Y6008014D01*
X1504645Y5998514D01*
X1508810Y5989624D01*
X1514449Y5981547D01*
X1521409Y5974638D01*
X1529435Y5969000D01*
X1538376Y5964834D01*
X1547825Y5962294D01*
G37*

%LPD*%
D10*
X1652094Y4531083D02*
G01*
X1652094Y4541370D01*
X1437566Y4755898D01*
X1125730Y4755898D01*
X1111354Y4741522D01*
X2514348Y4910051D02*
G01*
X2850542Y4910051D01*
X2988236Y5047744D01*
X1572262Y5245762D02*
G01*
X1572262Y5014343D01*
X1688721Y4897884D01*
X1642976Y4085313D02*
G01*
X2317854Y4085313D01*
X2399819Y4167278D01*
X1920420Y4301187D02*
G01*
X2026668Y4407435D01*
X2489304Y4407435D01*
X2489304Y4407461D01*
X3200402Y4775202D02*
G01*
X3054073Y4921531D01*
X3054073Y5068445D01*
X2681099Y5441419D01*
X1935914Y5441419D01*
X2360602Y4938702D02*
G01*
X2360551Y4938651D01*
X2360551Y4838677D01*
X2260551Y4938651D02*
G01*
X2260602Y4938600D01*
X2260602Y4838702D01*
X2360551Y4738702D02*
G01*
X2360551Y4838677D01*
X1679196Y4392627D02*
G01*
X1418313Y4392627D01*
X1304063Y4278378D01*
D11*
G01*
X3200400Y5029200D03*
D12*
G01*
X3200400Y4775200D03*
G01*
X3200400Y4521200D03*
D13*
G01*
X1394561Y5302808D03*
G01*
X1394561Y6482791D03*
G01*
X1059561Y6482791D03*
G01*
X1059561Y5302808D03*
D14*
G01*
X2160600Y4838700D03*
G01*
X2160600Y4738700D03*
G01*
X2360549Y4838674D03*
G01*
X2360549Y4738700D03*
G01*
X2160600Y4938699D03*
G01*
X2360599Y4938699D03*
G01*
X2260600Y4838700D03*
G01*
X2260549Y4938648D03*
G01*
X2260600Y4738700D03*
D15*
G01*
X2294359Y5503776D03*
G01*
X1317195Y5074820D03*
G01*
X2521536Y4618687D03*
G01*
X1679196Y4392627D03*
G01*
X1304063Y4278378D03*
G01*
X2120902Y5770679D03*
G01*
X1109195Y3946679D03*
G01*
X2739392Y5272509D03*
G01*
X2811071Y4170911D03*
G01*
X2700149Y4346450D03*
G01*
X3098802Y5857775D03*
G01*
X1935914Y5441419D03*
G01*
X1920420Y4301187D03*
G01*
X2489304Y4407461D03*
G01*
X2399819Y4167278D03*
G01*
X1642976Y4085313D03*
G01*
X3166595Y5664202D03*
G01*
X2560474Y5516069D03*
G01*
X2000506Y4878174D03*
G01*
X1572262Y5245762D03*
G01*
X1688721Y4897884D03*
G01*
X2514348Y4910051D03*
G01*
X2988236Y5047744D03*
G01*
X1321945Y4996512D03*
G01*
X1557632Y6017795D03*
G01*
X1546633Y5767809D03*
G01*
X1016713Y4544291D03*
G01*
X1351460Y4697326D03*
G01*
X1559181Y4551428D03*
G01*
X1652094Y4531083D03*
G01*
X1111354Y4741522D03*
M02*
