G04 Layer: TopSolderMaskLayer*
G04 EasyEDA v6.5.38, 2023-12-01 04:26:50*
G04 a14715bac62b4674aedb9b46894eb211,1c5aeea7b1c04971ae88c05baabc065b,10*
G04 Gerber Generator version 0.2*
G04 Scale: 100 percent, Rotated: No, Reflected: No *
G04 Dimensions in millimeters *
G04 leading zeros omitted , absolute positions ,4 integer and 5 decimal *
%FSLAX45Y45*%
%MOMM*%

%AMMACRO1*1,1,$1,$2,$3*1,1,$1,$4,$5*1,1,$1,0-$2,0-$3*1,1,$1,0-$4,0-$5*20,1,$1,$2,$3,$4,$5,0*20,1,$1,$4,$5,0-$2,0-$3,0*20,1,$1,0-$2,0-$3,0-$4,0-$5,0*20,1,$1,0-$4,0-$5,$2,$3,0*4,1,4,$2,$3,$4,$5,0-$2,0-$3,0-$4,0-$5,$2,$3,0*%
%AMMACRO2*21,1,$1,$2,0,0,$3*%
%ADD10R,2.5016X2.1016*%
%ADD11MACRO1,0.1016X0.7874X0.7874X0.7874X-0.7874*%
%ADD12C,1.6764*%
%ADD13R,1.4616X1.3316*%
%ADD14MACRO1,0.1016X0.3325X-0.1X-0.3325X-0.1*%
%ADD15MACRO1,0.1016X0.1X-0.3325X-0.1X-0.3325*%
%ADD16MACRO1,0.1016X2X-2X-2X-2*%
%ADD17O,2.1466048X0.68961*%
%ADD18O,2.051812X0.6700012*%
%ADD19MACRO1,0.102X0.425X0.175X0.425X-0.175*%
%ADD20O,2.3520146X1.1020044*%
%ADD21MACRO2,0.9002X4.8999X0.0000*%
%ADD22MACRO2,0.5001X5X-90.0000*%
%ADD23MACRO2,0.5001X4.8999X0.0000*%
%ADD24MACRO2,0.4999X2.6398X0.0000*%
%ADD25MACRO2,0.4999X2X-90.0000*%
%ADD26MACRO2,0.5001X2.6401X0.0000*%
%ADD27MACRO2,0.5001X2.7X-90.0000*%
%ADD28MACRO2,0.5001X2.6398X0.0000*%
%ADD29MACRO2,0.4999X3.9398X0.0000*%
%ADD30MACRO1,0.1016X0.25X-0.45X-0.25X-0.45*%
%ADD31MACRO1,0.1016X-0.8X0.6X-0.8X-0.6*%
%ADD32MACRO1,0.1016X0.8X0.6X0.8X-0.6*%
%ADD33MACRO1,0.1016X0.8X-0.6X0.8X0.6*%
%ADD34MACRO1,0.1016X-0.8X-0.6X-0.8X0.6*%

%LPD*%
D10*
G01*
X2019300Y6412204D03*
G01*
X2019300Y5932220D03*
G01*
X2540000Y6424904D03*
G01*
X2540000Y5944920D03*
D11*
G01*
X3200400Y5029200D03*
D12*
G01*
X3200400Y4775200D03*
G01*
X3200400Y4521200D03*
D13*
G01*
X3098800Y5966409D03*
G01*
X3098800Y6403390D03*
D14*
G01*
X2601352Y4578692D03*
G01*
X2601352Y4618697D03*
G01*
X2601352Y4658702D03*
G01*
X2601352Y4698682D03*
G01*
X2601352Y4738687D03*
G01*
X2601352Y4778692D03*
G01*
X2601352Y4818697D03*
G01*
X2601352Y4858702D03*
G01*
X2601352Y4898682D03*
G01*
X2601352Y4938687D03*
G01*
X2601352Y4978692D03*
G01*
X2601352Y5018697D03*
G01*
X2601352Y5058702D03*
G01*
X2601352Y5098681D03*
D15*
G01*
X2520581Y5179454D03*
G01*
X2480602Y5179454D03*
G01*
X2440597Y5179454D03*
G01*
X2400592Y5179454D03*
G01*
X2360587Y5179454D03*
G01*
X2320582Y5179454D03*
G01*
X2280602Y5179454D03*
G01*
X2240597Y5179454D03*
G01*
X2200592Y5179454D03*
G01*
X2160587Y5179454D03*
G01*
X2120582Y5179454D03*
G01*
X2080602Y5179454D03*
G01*
X2040597Y5179454D03*
G01*
X2000592Y5179454D03*
D14*
G01*
X1919845Y5098681D03*
G01*
X1919845Y5058702D03*
G01*
X1919845Y5018697D03*
G01*
X1919845Y4978692D03*
G01*
X1919845Y4938687D03*
G01*
X1919845Y4898682D03*
G01*
X1919845Y4858702D03*
G01*
X1919845Y4818697D03*
G01*
X1919845Y4778692D03*
G01*
X1919845Y4738687D03*
G01*
X1919845Y4698682D03*
G01*
X1919845Y4658702D03*
G01*
X1919845Y4618697D03*
G01*
X1919845Y4578692D03*
D15*
G01*
X2000592Y4497946D03*
G01*
X2040597Y4497946D03*
G01*
X2080602Y4497946D03*
G01*
X2120582Y4497946D03*
G01*
X2160587Y4497946D03*
G01*
X2200592Y4497946D03*
G01*
X2240597Y4497946D03*
G01*
X2280602Y4497946D03*
G01*
X2320582Y4497946D03*
G01*
X2360587Y4497946D03*
G01*
X2400592Y4497946D03*
G01*
X2440597Y4497946D03*
G01*
X2480602Y4497946D03*
G01*
X2520581Y4497946D03*
D16*
G01*
X2260587Y4838687D03*
D17*
G01*
X916559Y5016500D03*
G01*
X916559Y4889500D03*
G01*
X916559Y4762500D03*
G01*
X916559Y4635500D03*
G01*
X1471040Y5016500D03*
G01*
X1471040Y4889500D03*
G01*
X1471040Y4762500D03*
G01*
X1471040Y4635500D03*
D18*
G01*
X2739390Y5727700D03*
G01*
X2739390Y5600700D03*
G01*
X2739390Y5473700D03*
G01*
X2739390Y5346700D03*
G01*
X3280409Y5727700D03*
G01*
X3280409Y5600700D03*
G01*
X3280409Y5473700D03*
G01*
X3280409Y5346700D03*
D19*
G01*
X1455051Y5817816D03*
G01*
X1455049Y5767804D03*
G01*
X1455049Y5717804D03*
G01*
X1455049Y5662805D03*
G01*
X1455049Y5612805D03*
G01*
X1455049Y5557804D03*
G01*
X1455049Y5507804D03*
G01*
X1455049Y5867803D03*
G01*
X1455049Y5917803D03*
G01*
X1455049Y5967803D03*
G01*
X1455049Y6017803D03*
G01*
X1455049Y6067803D03*
G01*
X1455049Y6122804D03*
G01*
X1455049Y6172804D03*
G01*
X1455049Y6227803D03*
G01*
X1455049Y6277803D03*
D20*
G01*
X1394561Y5302808D03*
G01*
X1394561Y6482791D03*
G01*
X1059561Y6482791D03*
G01*
X1059561Y5302808D03*
D21*
G01*
X1810283Y4034904D03*
D22*
G01*
X2015274Y3764902D03*
D23*
G01*
X2020277Y4034904D03*
D24*
G01*
X2240280Y3921899D03*
D25*
G01*
X2365273Y4028897D03*
D26*
G01*
X2490304Y3921886D03*
D27*
G01*
X2600274Y3764902D03*
D28*
G01*
X2710319Y3921874D03*
D25*
G01*
X2835325Y4028897D03*
D28*
G01*
X2960306Y3921874D03*
D27*
G01*
X3070275Y3764902D03*
D29*
G01*
X3180283Y3986898D03*
D30*
G01*
X2215907Y5679898D03*
G01*
X2120908Y5679898D03*
G01*
X2025907Y5679898D03*
G01*
X2025907Y5419896D03*
G01*
X2215907Y5419896D03*
D31*
G01*
X1381099Y4107799D03*
D32*
G01*
X981100Y4107799D03*
D33*
G01*
X981100Y3867800D03*
D34*
G01*
X1381099Y3867800D03*
M02*
