G04 Layer: BottomSolderMaskLayer*
G04 EasyEDA v6.5.38, 2023-12-01 04:26:50*
G04 a14715bac62b4674aedb9b46894eb211,1c5aeea7b1c04971ae88c05baabc065b,10*
G04 Gerber Generator version 0.2*
G04 Scale: 100 percent, Rotated: No, Reflected: No *
G04 Dimensions in millimeters *
G04 leading zeros omitted , absolute positions ,4 integer and 5 decimal *
%FSLAX45Y45*%
%MOMM*%

%AMMACRO1*1,1,$1,$2,$3*1,1,$1,$4,$5*1,1,$1,0-$2,0-$3*1,1,$1,0-$4,0-$5*20,1,$1,$2,$3,$4,$5,0*20,1,$1,$4,$5,0-$2,0-$3,0*20,1,$1,0-$2,0-$3,0-$4,0-$5,0*20,1,$1,0-$4,0-$5,$2,$3,0*4,1,4,$2,$3,$4,$5,0-$2,0-$3,0-$4,0-$5,$2,$3,0*%
%ADD10R,1.0016X0.9016*%
%ADD11MACRO1,0.1016X0.45X-0.4X0.45X0.4*%
%ADD12MACRO1,0.1016X-0.4X-0.45X0.4X-0.45*%
%ADD13MACRO1,0.1016X0.4X0.45X-0.4X0.45*%
%ADD14R,1.4516X1.5116*%
%ADD15MACRO1,0.1016X0.432X-0.4X0.432X0.4*%
%ADD16MACRO1,0.1016X-0.4X-0.432X0.4X-0.432*%
%ADD17MACRO1,0.1016X0.4032X-0.432X0.4032X0.432*%
%ADD18MACRO1,0.1016X-0.4032X-0.432X-0.4032X0.432*%
%ADD19R,0.9656X0.9081*%
%ADD20MACRO1,0.1016X-0.4032X0.432X-0.4032X-0.432*%
%ADD21MACRO1,0.1016X0.4032X0.432X0.4032X-0.432*%
%ADD22MACRO1,0.1016X-0.432X-0.4032X0.432X-0.4032*%
%ADD23MACRO1,0.1016X-0.432X0.4032X0.432X0.4032*%
%ADD24MACRO1,0.1016X0.7874X0.7874X0.7874X-0.7874*%
%ADD25C,1.6764*%
%ADD26O,2.3520146X1.1020044*%

%LPD*%
D10*
G01*
X2933700Y4578197D03*
G01*
X2933700Y4718202D03*
D11*
G01*
X1790700Y5086499D03*
G01*
X1790700Y4946500D03*
D10*
G01*
X2006600Y4603597D03*
G01*
X2006600Y4743602D03*
G01*
X2743200Y4578197D03*
G01*
X2743200Y4718202D03*
D12*
G01*
X1327299Y4394200D03*
G01*
X1187300Y4394200D03*
D10*
G01*
X939800Y4311497D03*
G01*
X939800Y4451502D03*
D13*
G01*
X2762100Y4914900D03*
G01*
X2902099Y4914900D03*
G01*
X2762100Y5105400D03*
G01*
X2902099Y5105400D03*
D11*
G01*
X2387600Y5619899D03*
G01*
X2387600Y5479900D03*
D12*
G01*
X2330599Y4254500D03*
G01*
X2190600Y4254500D03*
G01*
X2673499Y4254500D03*
G01*
X2533500Y4254500D03*
D10*
G01*
X2844800Y6203797D03*
G01*
X2844800Y6343802D03*
D13*
G01*
X844400Y5130800D03*
G01*
X984399Y5130800D03*
D12*
G01*
X2394099Y4432300D03*
G01*
X2254100Y4432300D03*
D10*
G01*
X1574800Y4286097D03*
G01*
X1574800Y4426102D03*
D14*
G01*
X1803400Y5513400D03*
G01*
X1803400Y5713399D03*
D15*
G01*
X1790687Y4743599D03*
G01*
X1790687Y4603600D03*
D16*
G01*
X3054499Y4254512D03*
G01*
X2914500Y4254512D03*
D17*
G01*
X1778875Y4394200D03*
D18*
G01*
X1929524Y4394200D03*
D17*
G01*
X1220075Y3886200D03*
D18*
G01*
X1370724Y3886200D03*
D19*
G01*
X3009900Y5525363D03*
G01*
X3009900Y5676036D03*
D20*
G01*
X2539124Y5295900D03*
D21*
G01*
X2388475Y5295900D03*
D20*
G01*
X1840624Y5295900D03*
D21*
G01*
X1689975Y5295900D03*
D20*
G01*
X2196224Y5295900D03*
D21*
G01*
X2045575Y5295900D03*
D22*
G01*
X1066800Y5803024D03*
D23*
G01*
X1066800Y5652375D03*
D22*
G01*
X1054100Y6209424D03*
D23*
G01*
X1054100Y6058775D03*
D17*
G01*
X2782175Y5956300D03*
D18*
G01*
X2932824Y5956300D03*
D17*
G01*
X775575Y4622800D03*
D18*
G01*
X926224Y4622800D03*
D24*
G01*
X3200400Y5029200D03*
D25*
G01*
X3200400Y4775200D03*
G01*
X3200400Y4521200D03*
D26*
G01*
X1394561Y5302808D03*
G01*
X1394561Y6482791D03*
G01*
X1059561Y6482791D03*
G01*
X1059561Y5302808D03*
M02*
