G04 Layer: TopLayer*
G04 EasyEDA v6.5.38, 2023-12-01 04:26:50*
G04 a14715bac62b4674aedb9b46894eb211,1c5aeea7b1c04971ae88c05baabc065b,10*
G04 Gerber Generator version 0.2*
G04 Scale: 100 percent, Rotated: No, Reflected: No *
G04 Dimensions in millimeters *
G04 leading zeros omitted , absolute positions ,4 integer and 5 decimal *
%FSLAX45Y45*%
%MOMM*%

%AMMACRO1*21,1,$1,$2,0,0,$3*%
%ADD10C,0.2540*%
%ADD11R,2.4000X2.0000*%
%ADD12MACRO1,1.36X1.23X0.0000*%
%ADD13R,0.6650X0.2000*%
%ADD14R,0.2000X0.6650*%
%ADD15R,4.0000X4.0000*%
%ADD16O,2.0450048X0.58801*%
%ADD17O,1.950212X0.5684012*%
%ADD18R,0.8500X0.3500*%
%ADD19MACRO1,0.9X4.9X0.0000*%
%ADD20MACRO1,0.5X5X-90.0000*%
%ADD21MACRO1,0.5X4.9X0.0000*%
%ADD22MACRO1,0.5X2.64X0.0000*%
%ADD23MACRO1,0.5X2X-90.0000*%
%ADD24MACRO1,0.5X2.7X-90.0000*%
%ADD25MACRO1,0.5001X2.6399X0.0000*%
%ADD26MACRO1,0.5002X2.6398X0.0000*%
%ADD27MACRO1,0.5X3.94X0.0000*%
%ADD28R,0.5000X0.9000*%
%ADD29MACRO1,1.2X1.6X-90.0000*%
%ADD30R,1.6000X1.2000*%
%ADD31MACRO1,1.2X1.6X90.0000*%
%ADD32R,1.5748X1.5748*%
%ADD33C,1.5748*%
%ADD34O,2.2500082X0.9999979999999999*%
%ADD35C,0.6096*%
%ADD36C,0.6100*%
%ADD37C,0.0166*%

%LPD*%
D10*
X1455041Y5917796D02*
G01*
X1455041Y5867808D01*
X2016381Y5932223D02*
G01*
X1871398Y5932223D01*
X2016381Y5932223D02*
G01*
X2019302Y5932223D01*
X1455041Y5917796D02*
G01*
X1517144Y5917796D01*
X1533197Y5901743D01*
X1759790Y5901743D01*
X1759790Y5901743D02*
G01*
X1840918Y5901743D01*
X1871398Y5932223D01*
X1384632Y5967808D02*
G01*
X1384454Y5967630D01*
X1384454Y5817999D01*
X1384632Y5817821D01*
X1455066Y5817821D02*
G01*
X1384632Y5817821D01*
X1419837Y5967808D02*
G01*
X1384632Y5967808D01*
X1419837Y5967808D02*
G01*
X1455041Y5967808D01*
X1455041Y5967808D02*
G01*
X1524789Y5967808D01*
X1550088Y5942510D01*
X1616255Y5942510D01*
X1734060Y6060315D01*
X2276706Y6060315D01*
X2392098Y5944923D01*
X2540002Y5944923D02*
G01*
X2427480Y5944923D01*
X2427480Y5944923D02*
G01*
X2392098Y5944923D01*
X2427480Y5944923D02*
G01*
X2427480Y5515587D01*
X2160602Y5248709D01*
X2160602Y5179468D01*
X3200402Y5029202D02*
G01*
X3093747Y5029202D01*
X3093747Y5029202D02*
G01*
X2843227Y4778682D01*
X2601343Y4778682D01*
X2000608Y5179468D02*
G01*
X2000608Y5240632D01*
X916561Y5016502D02*
G01*
X1087249Y5187190D01*
X1596519Y5187190D01*
X1649961Y5240632D01*
X2000608Y5240632D01*
X1471043Y4889502D02*
G01*
X1581050Y4889502D01*
X1731876Y4738677D01*
X1919836Y4738677D01*
X1858672Y4658692D02*
G01*
X1857910Y4659454D01*
X1494995Y4659454D01*
X1471043Y4635502D01*
X1919836Y4658692D02*
G01*
X1858672Y4658692D01*
X1919836Y4578682D02*
G01*
X1858672Y4578682D01*
X1652094Y4531083D02*
G01*
X1811073Y4531083D01*
X1858672Y4578682D01*
X916561Y4889502D02*
G01*
X963373Y4889502D01*
X1111354Y4741522D01*
X1824560Y4618687D02*
G01*
X1919836Y4618687D01*
X1824560Y4618687D02*
G01*
X1626440Y4618687D01*
X1559181Y4551428D01*
X1471043Y4762502D02*
G01*
X1416636Y4762502D01*
X1351460Y4697326D01*
X2320597Y4497936D02*
G01*
X2320597Y4436772D01*
X1016713Y4544291D02*
G01*
X1190856Y4370148D01*
X1618846Y4370148D01*
X1654939Y4334055D01*
X1703453Y4334055D01*
X1739546Y4370148D01*
X2253973Y4370148D01*
X2320597Y4436772D01*
X1455041Y5767809D02*
G01*
X1546633Y5767809D01*
X1557632Y6017795D02*
G01*
X1455041Y6017795D01*
X1919836Y4938676D02*
G01*
X1730783Y4938676D01*
X1711175Y4958285D01*
X1360172Y4958285D01*
X1321945Y4996512D01*
X2739392Y5600702D02*
G01*
X2766113Y5600702D01*
X2988236Y5378579D01*
X2988236Y5047744D01*
X1901344Y4897884D02*
G01*
X1919048Y4897884D01*
X1919836Y4898671D01*
X1901344Y4897884D02*
G01*
X1688721Y4897884D01*
X1919836Y4858692D02*
G01*
X1981024Y4858692D01*
X1981024Y4858692D02*
G01*
X2000506Y4878174D01*
X2739392Y5727702D02*
G01*
X2704619Y5727702D01*
X2560474Y5583557D01*
X2560474Y5516069D01*
X3280412Y5600702D02*
G01*
X3230095Y5600702D01*
X3166595Y5664202D01*
X2400607Y4497936D02*
G01*
X2400607Y4436772D01*
X2400607Y4436772D02*
G01*
X2399819Y4435985D01*
X2399819Y4167278D01*
X2460170Y4436595D02*
G01*
X2457249Y4439516D01*
X2440586Y4439516D01*
X2460170Y4436595D02*
G01*
X2489304Y4407461D01*
X2440586Y4497936D02*
G01*
X2440586Y4439516D01*
X2215898Y5679899D02*
G01*
X2215898Y5606976D01*
X1384632Y6172812D02*
G01*
X1384632Y6122799D01*
X1455041Y6172812D02*
G01*
X1384632Y6172812D01*
X1455041Y5612818D02*
G01*
X1490271Y5612818D01*
X1455041Y5662805D02*
G01*
X1525475Y5662805D01*
X1455041Y6122799D02*
G01*
X1409600Y6122799D01*
X1405765Y6122799D02*
G01*
X1384632Y6122799D01*
X1409600Y6122799D02*
G01*
X1405765Y6122799D01*
X1405765Y6122799D02*
G01*
X1341808Y6058842D01*
X1341808Y5705629D01*
X1384632Y5662805D01*
X1455041Y5662805D02*
G01*
X1384632Y5662805D01*
X2025906Y5679899D02*
G01*
X2025906Y5606976D01*
X2025906Y5606976D02*
G01*
X2027582Y5605299D01*
X2214222Y5605299D01*
X2215898Y5606976D01*
X1490271Y5612818D02*
G01*
X1513512Y5612818D01*
X1525475Y5624781D01*
X1525475Y5662805D01*
X1935914Y5441419D02*
G01*
X1935914Y5516984D01*
X2025906Y5606976D01*
X3098802Y5966411D02*
G01*
X3098802Y5876978D01*
X3098802Y5876978D02*
G01*
X3098802Y5857775D01*
X2599159Y4576498D02*
G01*
X2601343Y4578682D01*
X2599159Y4576498D02*
G01*
X2700149Y4475482D01*
X2700149Y4346450D01*
X3180285Y3986913D02*
G01*
X3180285Y3761996D01*
X3180285Y3761996D02*
G01*
X3073199Y3761996D01*
X3070278Y3764917D01*
X2899285Y4028899D02*
G01*
X2963242Y4028899D01*
X2899285Y4028899D02*
G01*
X2835328Y4028899D01*
X2707413Y4028899D02*
G01*
X2707413Y3924785D01*
X2710309Y3921889D01*
X2960321Y3921889D02*
G01*
X2963242Y3924810D01*
X2963242Y4028899D01*
X2960321Y3761971D02*
G01*
X3067331Y3761971D01*
X3070278Y3764917D01*
X2960321Y3921889D02*
G01*
X2960321Y3761971D01*
X2490294Y3921889D02*
G01*
X2490294Y3841930D01*
X2490294Y3841930D02*
G01*
X2490294Y3761971D01*
X2490294Y3841930D02*
G01*
X2493190Y3844825D01*
X2493190Y4028899D01*
X2429233Y4028899D02*
G01*
X2365275Y4028899D01*
X2237361Y4028899D02*
G01*
X2237361Y3924835D01*
X2240282Y3921914D01*
X2365275Y4028899D02*
G01*
X2237361Y4028899D01*
X2490294Y3761971D02*
G01*
X2597330Y3761971D01*
X2600276Y3764917D01*
X2600276Y3764917D02*
G01*
X2603223Y3761971D01*
X2710309Y3761971D01*
X2710309Y3921889D02*
G01*
X2710309Y3761971D01*
X2020293Y4034894D02*
G01*
X2020293Y4032404D01*
X2015289Y3764917D02*
G01*
X2015289Y4027401D01*
X2020293Y4032404D01*
X2020293Y4032404D02*
G01*
X2233856Y4032404D01*
X2237361Y4028899D01*
X2429233Y4028899D02*
G01*
X2493190Y4028899D01*
X2835328Y4028899D02*
G01*
X2771371Y4028899D01*
X2771371Y4028899D02*
G01*
X2707413Y4028899D01*
X2771371Y4028899D02*
G01*
X2811071Y4068599D01*
X2811071Y4170911D01*
X2739392Y5272509D02*
G01*
X2739392Y5346702D01*
X1089027Y3867812D02*
G01*
X1089027Y3926512D01*
X1109195Y3946679D01*
X981102Y3867812D02*
G01*
X1089027Y3867812D01*
X2260602Y4838702D02*
G01*
X2260602Y4838677D01*
X1381102Y3955722D02*
G01*
X1293192Y3955722D01*
X1229032Y4019882D01*
X981102Y4019882D01*
X1381102Y3867812D02*
G01*
X1381102Y3955722D01*
X981102Y4063850D02*
G01*
X981102Y4019882D01*
X981102Y4063850D02*
G01*
X981102Y4107792D01*
X1810285Y4034894D02*
G01*
X1731114Y3955722D01*
X1381102Y3955722D01*
X1455041Y6277815D02*
G01*
X1384632Y6277815D01*
X1455041Y6227803D02*
G01*
X1394716Y6227803D01*
X1384632Y5507814D02*
G01*
X1384632Y5557801D01*
X1455041Y5507814D02*
G01*
X1384632Y5507814D01*
X1455041Y5557801D02*
G01*
X1394716Y5557801D01*
X1394716Y5557801D02*
G01*
X1384632Y5557801D01*
X1394716Y6227803D02*
G01*
X1384632Y6237886D01*
X1384632Y6237886D02*
G01*
X1384632Y6277815D01*
X3098802Y6403393D02*
G01*
X3098802Y6358689D01*
X3098802Y6358689D02*
G01*
X3098802Y6313985D01*
X3098802Y6358689D02*
G01*
X2754149Y6358689D01*
X2687932Y6424907D01*
X2540002Y6424907D02*
G01*
X2613967Y6424907D01*
X2613967Y6424907D02*
G01*
X2687932Y6424907D01*
X2613967Y6424907D02*
G01*
X2601267Y6412207D01*
X2019302Y6412207D01*
X2019302Y6284292D02*
G01*
X1531952Y6284292D01*
X1525475Y6277815D01*
X2019302Y6412207D02*
G01*
X2019302Y6284292D01*
X1455041Y6277815D02*
G01*
X1525475Y6277815D01*
X916561Y4635502D02*
G01*
X889408Y4635502D01*
X786234Y4738677D01*
X786234Y5202430D01*
X1263119Y5679315D01*
X1384632Y5557801D02*
G01*
X1263119Y5679315D01*
X1263119Y5679315D02*
G01*
X1263119Y6116373D01*
X1384632Y6237886D01*
X3098802Y6313985D02*
G01*
X3280412Y6132375D01*
X3280412Y5727702D01*
X3280412Y5727702D02*
G01*
X3318741Y5727702D01*
X3408555Y5637888D01*
X3408555Y4729355D01*
X3200402Y4521202D01*
X2120902Y5679899D02*
G01*
X2120902Y5770679D01*
X916561Y4635502D02*
G01*
X916561Y4260268D01*
X981102Y4195726D01*
X981102Y4107792D02*
G01*
X981102Y4195726D01*
X1381102Y4195726D02*
G01*
X1304063Y4272765D01*
X1304063Y4278378D01*
X1381102Y4107792D02*
G01*
X1381102Y4195726D01*
X2540180Y4658692D02*
G01*
X2540180Y4618687D01*
X2601343Y4658692D02*
G01*
X2540180Y4658692D01*
X2601343Y4618687D02*
G01*
X2570761Y4618687D01*
X2570761Y4618687D02*
G01*
X2540180Y4618687D01*
X2540180Y4618687D02*
G01*
X2521536Y4618687D01*
X2480617Y4559124D02*
G01*
X2473886Y4565855D01*
X2127303Y4565855D01*
X2120572Y4559124D01*
X2120572Y4518459D02*
G01*
X2120572Y4559124D01*
X2120572Y4518459D02*
G01*
X2120572Y4497936D01*
X1471043Y5016502D02*
G01*
X1420599Y5066946D01*
X1317195Y5066946D01*
X1317195Y5074820D02*
G01*
X1317195Y5066946D01*
X2480617Y4497936D02*
G01*
X2480617Y4528543D01*
X2520596Y4497936D02*
G01*
X2520596Y4559124D01*
X2480617Y4551733D02*
G01*
X2480617Y4559124D01*
X2480617Y4528543D02*
G01*
X2480617Y4551733D01*
X2480617Y4551733D02*
G01*
X2488008Y4559124D01*
X2520596Y4559124D01*
X2215898Y5492803D02*
G01*
X2283386Y5492803D01*
X2294359Y5503776D01*
X2215898Y5419905D02*
G01*
X2215898Y5492803D01*
X2120572Y4497936D02*
G01*
X2120572Y4436747D01*
X2100734Y4416910D01*
X1737768Y4416910D01*
X1703478Y4451200D01*
X1494132Y4451200D01*
X1253441Y4691890D01*
X1253441Y5013022D01*
X1307365Y5066946D01*
X1317195Y5066946D01*
D11*
G01*
X2019300Y6412204D03*
G01*
X2019300Y5932220D03*
G01*
X2540000Y6424904D03*
G01*
X2540000Y5944920D03*
D12*
G01*
X3098800Y5966400D03*
G01*
X3098800Y6403399D03*
D13*
G01*
X2601340Y4578680D03*
G01*
X2601340Y4618685D03*
G01*
X2601340Y4658690D03*
G01*
X2601340Y4698669D03*
G01*
X2601340Y4738674D03*
G01*
X2601340Y4778679D03*
G01*
X2601340Y4818684D03*
G01*
X2601340Y4858689D03*
G01*
X2601340Y4898669D03*
G01*
X2601340Y4938674D03*
G01*
X2601340Y4978679D03*
G01*
X2601340Y5018684D03*
G01*
X2601340Y5058689D03*
G01*
X2601340Y5098669D03*
D14*
G01*
X2520594Y5179466D03*
G01*
X2480614Y5179466D03*
G01*
X2440584Y5179466D03*
G01*
X2400604Y5179466D03*
G01*
X2360599Y5179466D03*
G01*
X2320594Y5179466D03*
G01*
X2280615Y5179466D03*
G01*
X2240584Y5179466D03*
G01*
X2200605Y5179466D03*
G01*
X2160600Y5179466D03*
G01*
X2120569Y5179466D03*
G01*
X2080615Y5179466D03*
G01*
X2040610Y5179466D03*
G01*
X2000605Y5179466D03*
D13*
G01*
X1919833Y5098669D03*
G01*
X1919833Y5058689D03*
G01*
X1919833Y5018684D03*
G01*
X1919833Y4978679D03*
G01*
X1919833Y4938674D03*
G01*
X1919833Y4898669D03*
G01*
X1919833Y4858689D03*
G01*
X1919833Y4818684D03*
G01*
X1919833Y4778679D03*
G01*
X1919833Y4738674D03*
G01*
X1919833Y4698669D03*
G01*
X1919833Y4658690D03*
G01*
X1919833Y4618685D03*
G01*
X1919833Y4578680D03*
D14*
G01*
X2000605Y4497933D03*
G01*
X2040610Y4497933D03*
G01*
X2080615Y4497933D03*
G01*
X2120569Y4497933D03*
G01*
X2160600Y4497933D03*
G01*
X2200605Y4497933D03*
G01*
X2240584Y4497933D03*
G01*
X2280615Y4497933D03*
G01*
X2320594Y4497933D03*
G01*
X2360599Y4497933D03*
G01*
X2400604Y4497933D03*
G01*
X2440584Y4497933D03*
G01*
X2480614Y4497933D03*
G01*
X2520594Y4497933D03*
D15*
G01*
X2260600Y4838674D03*
D16*
G01*
X916559Y5016500D03*
G01*
X916559Y4889500D03*
G01*
X916559Y4762500D03*
G01*
X916559Y4635500D03*
G01*
X1471040Y5016500D03*
G01*
X1471040Y4889500D03*
G01*
X1471040Y4762500D03*
G01*
X1471040Y4635500D03*
D17*
G01*
X2739390Y5727700D03*
G01*
X2739390Y5600700D03*
G01*
X2739390Y5473700D03*
G01*
X2739390Y5346700D03*
G01*
X3280409Y5727700D03*
G01*
X3280409Y5600700D03*
G01*
X3280409Y5473700D03*
G01*
X3280409Y5346700D03*
D18*
G01*
X1455064Y5817819D03*
G01*
X1455038Y5767806D03*
G01*
X1455038Y5717794D03*
G01*
X1455038Y5662803D03*
G01*
X1455038Y5612815D03*
G01*
X1455038Y5557799D03*
G01*
X1455038Y5507812D03*
G01*
X1455038Y5867806D03*
G01*
X1455038Y5917793D03*
G01*
X1455038Y5967806D03*
G01*
X1455038Y6017793D03*
G01*
X1455038Y6067805D03*
G01*
X1455038Y6122796D03*
G01*
X1455038Y6172809D03*
G01*
X1455038Y6227800D03*
G01*
X1455038Y6277813D03*
D19*
G01*
X1810282Y4034903D03*
D20*
G01*
X2015279Y3764903D03*
D21*
G01*
X2020281Y4034903D03*
D22*
G01*
X2240281Y3921902D03*
D23*
G01*
X2365278Y4028899D03*
D22*
G01*
X2490297Y3921893D03*
D24*
G01*
X2600278Y3764902D03*
D25*
G01*
X2710312Y3921879D03*
D23*
G01*
X2835334Y4028902D03*
D26*
G01*
X2960311Y3921876D03*
D24*
G01*
X3070278Y3764903D03*
D27*
G01*
X3180279Y3986900D03*
D28*
G01*
X2215895Y5679897D03*
G01*
X2120900Y5679897D03*
G01*
X2025904Y5679897D03*
G01*
X2025904Y5419902D03*
G01*
X2215895Y5419902D03*
D29*
G01*
X1381099Y4107799D03*
G01*
X981100Y4107799D03*
D30*
G01*
X981100Y3867810D03*
D31*
G01*
X1381099Y3867800D03*
D32*
G01*
X3200400Y5029200D03*
D33*
G01*
X3200400Y4775200D03*
G01*
X3200400Y4521200D03*
D34*
G01*
X1394561Y5302808D03*
G01*
X1394561Y6482791D03*
G01*
X1059561Y6482791D03*
G01*
X1059561Y5302808D03*
D35*
G01*
X2160600Y4838700D03*
G01*
X2160600Y4738700D03*
G01*
X2360549Y4838674D03*
G01*
X2360549Y4738700D03*
G01*
X2160600Y4938699D03*
G01*
X2360599Y4938699D03*
G01*
X2260600Y4838700D03*
G01*
X2260549Y4938648D03*
G01*
X2260600Y4738700D03*
D36*
G01*
X2294359Y5503776D03*
G01*
X1317195Y5074820D03*
G01*
X2521536Y4618687D03*
G01*
X1679196Y4392627D03*
G01*
X1304063Y4278378D03*
G01*
X2120902Y5770679D03*
G01*
X1109195Y3946679D03*
G01*
X2739392Y5272509D03*
G01*
X2811071Y4170911D03*
G01*
X2700149Y4346450D03*
G01*
X3098802Y5857775D03*
G01*
X1935914Y5441419D03*
G01*
X1920420Y4301187D03*
G01*
X2489304Y4407461D03*
G01*
X2399819Y4167278D03*
G01*
X1642976Y4085313D03*
G01*
X3166595Y5664202D03*
G01*
X2560474Y5516069D03*
G01*
X2000506Y4878174D03*
G01*
X1572262Y5245762D03*
G01*
X1688721Y4897884D03*
G01*
X2514348Y4910051D03*
G01*
X2988236Y5047744D03*
G01*
X1321945Y4996512D03*
G01*
X1557632Y6017795D03*
G01*
X1546633Y5767809D03*
G01*
X1016713Y4544291D03*
G01*
X1351460Y4697326D03*
G01*
X1559181Y4551428D03*
G01*
X1652094Y4531083D03*
G01*
X1111354Y4741522D03*
M02*
