G04 Layer: InnerLayer2*
G04 EasyEDA v6.5.38, 2023-12-01 04:26:50*
G04 a14715bac62b4674aedb9b46894eb211,1c5aeea7b1c04971ae88c05baabc065b,10*
G04 Gerber Generator version 0.2*
G04 Scale: 100 percent, Rotated: No, Reflected: No *
G04 Dimensions in millimeters *
G04 leading zeros omitted , absolute positions ,4 integer and 5 decimal *
%FSLAX45Y45*%
%MOMM*%

%ADD10R,1.5748X1.5748*%
%ADD11C,1.5748*%
%ADD12O,2.2500082X0.9999979999999999*%
%ADD13C,0.6096*%
%ADD14C,0.6100*%
%ADD15C,0.0155*%

%LPD*%
G36*
X736092Y3658108D02*
G01*
X732180Y3658870D01*
X728929Y3661105D01*
X726694Y3664356D01*
X725932Y3668268D01*
X725932Y6563766D01*
X726694Y6567627D01*
X728929Y6570929D01*
X732231Y6573164D01*
X736142Y6573926D01*
X966571Y6573164D01*
X970483Y6572402D01*
X973785Y6570167D01*
X975969Y6566814D01*
X976680Y6562902D01*
X975868Y6558991D01*
X973582Y6555740D01*
X970229Y6553555D01*
X964133Y6551168D01*
X954328Y6545478D01*
X945438Y6538417D01*
X937717Y6530085D01*
X931316Y6520738D01*
X926439Y6510528D01*
X923086Y6499707D01*
X921359Y6488480D01*
X921359Y6477152D01*
X923086Y6465925D01*
X926439Y6455054D01*
X931316Y6444843D01*
X937717Y6435496D01*
X945438Y6427165D01*
X954328Y6420104D01*
X964133Y6414414D01*
X974699Y6410299D01*
X985723Y6407759D01*
X997407Y6406896D01*
X1121664Y6406896D01*
X1133348Y6407759D01*
X1144422Y6410299D01*
X1154988Y6414414D01*
X1164793Y6420104D01*
X1173683Y6427165D01*
X1181354Y6435496D01*
X1187754Y6444843D01*
X1192682Y6455054D01*
X1196035Y6465925D01*
X1197711Y6477152D01*
X1197711Y6488480D01*
X1196035Y6499707D01*
X1192682Y6510528D01*
X1187754Y6520738D01*
X1181354Y6530085D01*
X1173683Y6538417D01*
X1164793Y6545478D01*
X1154988Y6551168D01*
X1150366Y6552996D01*
X1147013Y6555130D01*
X1144727Y6558432D01*
X1143914Y6562344D01*
X1144676Y6566255D01*
X1146860Y6569608D01*
X1150162Y6571843D01*
X1154074Y6572605D01*
X1298905Y6572148D01*
X1302816Y6571335D01*
X1306118Y6569100D01*
X1308303Y6565798D01*
X1309014Y6561836D01*
X1308201Y6557975D01*
X1305915Y6554673D01*
X1302562Y6552539D01*
X1299108Y6551168D01*
X1289304Y6545478D01*
X1280414Y6538417D01*
X1272743Y6530085D01*
X1266342Y6520738D01*
X1261414Y6510528D01*
X1258062Y6499707D01*
X1256385Y6488480D01*
X1256385Y6477152D01*
X1258062Y6465925D01*
X1261414Y6455054D01*
X1266342Y6444843D01*
X1272743Y6435496D01*
X1280414Y6427165D01*
X1289304Y6420104D01*
X1299108Y6414414D01*
X1309674Y6410299D01*
X1320749Y6407759D01*
X1332433Y6406896D01*
X1456690Y6406896D01*
X1468374Y6407759D01*
X1479397Y6410299D01*
X1489964Y6414414D01*
X1499819Y6420104D01*
X1508658Y6427165D01*
X1516380Y6435496D01*
X1522780Y6444843D01*
X1527708Y6455054D01*
X1531010Y6465925D01*
X1532737Y6477152D01*
X1532737Y6488480D01*
X1531010Y6499707D01*
X1527708Y6510528D01*
X1522780Y6520738D01*
X1516380Y6530085D01*
X1508658Y6538417D01*
X1499819Y6545478D01*
X1489964Y6551168D01*
X1488084Y6551930D01*
X1484680Y6554063D01*
X1482445Y6557365D01*
X1481632Y6561277D01*
X1482344Y6565188D01*
X1484579Y6568541D01*
X1487881Y6570776D01*
X1491792Y6571538D01*
X3405682Y6565493D01*
X3409543Y6564731D01*
X3412845Y6562496D01*
X3415029Y6559245D01*
X3415792Y6555333D01*
X3415792Y3668268D01*
X3415029Y3664356D01*
X3412794Y3661105D01*
X3409543Y3658870D01*
X3405632Y3658108D01*
G37*

%LPC*%
G36*
X1109218Y3890314D02*
G01*
X1118971Y3891178D01*
X1128471Y3893718D01*
X1137361Y3897884D01*
X1145438Y3903522D01*
X1152398Y3910431D01*
X1158036Y3918508D01*
X1162151Y3927398D01*
X1164691Y3936898D01*
X1165555Y3946702D01*
X1164691Y3956456D01*
X1162151Y3965956D01*
X1158036Y3974846D01*
X1152398Y3982923D01*
X1145438Y3989882D01*
X1137361Y3995521D01*
X1128471Y3999636D01*
X1118971Y4002176D01*
X1109218Y4003040D01*
X1099413Y4002176D01*
X1089914Y3999636D01*
X1081024Y3995521D01*
X1072946Y3989882D01*
X1066038Y3982923D01*
X1060399Y3974846D01*
X1056233Y3965956D01*
X1053693Y3956456D01*
X1052830Y3946702D01*
X1053693Y3936898D01*
X1056233Y3927398D01*
X1060399Y3918508D01*
X1066038Y3910431D01*
X1072946Y3903522D01*
X1081024Y3897884D01*
X1089914Y3893718D01*
X1099413Y3891178D01*
G37*
G36*
X1642973Y4028948D02*
G01*
X1652778Y4029811D01*
X1662277Y4032351D01*
X1671167Y4036517D01*
X1679193Y4042156D01*
X1686153Y4049064D01*
X1691792Y4057142D01*
X1695957Y4066032D01*
X1698498Y4075531D01*
X1699361Y4085336D01*
X1698498Y4095089D01*
X1695957Y4104589D01*
X1691792Y4113479D01*
X1686153Y4121556D01*
X1679193Y4128515D01*
X1671167Y4134154D01*
X1662277Y4138269D01*
X1652778Y4140809D01*
X1642973Y4141673D01*
X1633169Y4140809D01*
X1623720Y4138269D01*
X1614779Y4134154D01*
X1606753Y4128515D01*
X1599793Y4121556D01*
X1594154Y4113479D01*
X1589989Y4104589D01*
X1587449Y4095089D01*
X1586585Y4085336D01*
X1587449Y4075531D01*
X1589989Y4066032D01*
X1594154Y4057142D01*
X1599793Y4049064D01*
X1606753Y4042156D01*
X1614779Y4036517D01*
X1623720Y4032351D01*
X1633169Y4029811D01*
G37*
G36*
X2399842Y4110888D02*
G01*
X2409596Y4111751D01*
X2419096Y4114292D01*
X2427986Y4118457D01*
X2436063Y4124096D01*
X2443022Y4131056D01*
X2448661Y4139082D01*
X2452776Y4148023D01*
X2455316Y4157472D01*
X2456180Y4167276D01*
X2455316Y4177080D01*
X2452776Y4186580D01*
X2448661Y4195470D01*
X2443022Y4203496D01*
X2436063Y4210456D01*
X2427986Y4216095D01*
X2419096Y4220260D01*
X2409596Y4222800D01*
X2399842Y4223664D01*
X2390038Y4222800D01*
X2380538Y4220260D01*
X2371648Y4216095D01*
X2363571Y4210456D01*
X2356662Y4203496D01*
X2351024Y4195470D01*
X2346858Y4186580D01*
X2344318Y4177080D01*
X2343454Y4167276D01*
X2344318Y4157472D01*
X2346858Y4148023D01*
X2351024Y4139082D01*
X2356662Y4131056D01*
X2363571Y4124096D01*
X2371648Y4118457D01*
X2380538Y4114292D01*
X2390038Y4111751D01*
G37*
G36*
X2811068Y4114546D02*
G01*
X2820873Y4115409D01*
X2830372Y4117949D01*
X2839262Y4122115D01*
X2847289Y4127754D01*
X2854248Y4134662D01*
X2859887Y4142740D01*
X2864053Y4151629D01*
X2866593Y4161129D01*
X2867456Y4170934D01*
X2866593Y4180687D01*
X2864053Y4190187D01*
X2859887Y4199077D01*
X2854248Y4207154D01*
X2847289Y4214114D01*
X2839262Y4219752D01*
X2830372Y4223867D01*
X2820873Y4226407D01*
X2811068Y4227271D01*
X2801264Y4226407D01*
X2791815Y4223867D01*
X2782874Y4219752D01*
X2774848Y4214114D01*
X2767888Y4207154D01*
X2762250Y4199077D01*
X2758084Y4190187D01*
X2755544Y4180687D01*
X2754680Y4170934D01*
X2755544Y4161129D01*
X2758084Y4151629D01*
X2762250Y4142740D01*
X2767888Y4134662D01*
X2774848Y4127754D01*
X2782874Y4122115D01*
X2791815Y4117949D01*
X2801264Y4115409D01*
G37*
G36*
X1304086Y4221988D02*
G01*
X1313840Y4222851D01*
X1323340Y4225391D01*
X1332230Y4229557D01*
X1340307Y4235196D01*
X1347266Y4242155D01*
X1352905Y4250182D01*
X1357020Y4259122D01*
X1359560Y4268571D01*
X1360424Y4278376D01*
X1359560Y4288180D01*
X1357020Y4297680D01*
X1352905Y4306570D01*
X1347266Y4314596D01*
X1340307Y4321556D01*
X1332230Y4327194D01*
X1323340Y4331360D01*
X1313840Y4333900D01*
X1304086Y4334764D01*
X1294282Y4333900D01*
X1284782Y4331360D01*
X1275892Y4327194D01*
X1267815Y4321556D01*
X1260906Y4314596D01*
X1255268Y4306570D01*
X1251102Y4297680D01*
X1248562Y4288180D01*
X1247698Y4278376D01*
X1248562Y4268571D01*
X1251102Y4259122D01*
X1255268Y4250182D01*
X1260906Y4242155D01*
X1267815Y4235196D01*
X1275892Y4229557D01*
X1284782Y4225391D01*
X1294282Y4222851D01*
G37*
G36*
X1920443Y4244797D02*
G01*
X1930196Y4245660D01*
X1939696Y4248200D01*
X1948586Y4252366D01*
X1956663Y4258005D01*
X1963623Y4264964D01*
X1969262Y4272991D01*
X1973376Y4281932D01*
X1975916Y4291380D01*
X1976780Y4301185D01*
X1975916Y4310989D01*
X1973376Y4320489D01*
X1969262Y4329379D01*
X1963623Y4337405D01*
X1956663Y4344365D01*
X1948586Y4350004D01*
X1939696Y4354169D01*
X1930196Y4356709D01*
X1920443Y4357573D01*
X1910638Y4356709D01*
X1901139Y4354169D01*
X1892249Y4350004D01*
X1884172Y4344365D01*
X1877263Y4337405D01*
X1871624Y4329379D01*
X1867458Y4320489D01*
X1864918Y4310989D01*
X1864055Y4301185D01*
X1864918Y4291380D01*
X1867458Y4281932D01*
X1871624Y4272991D01*
X1877263Y4264964D01*
X1884172Y4258005D01*
X1892249Y4252366D01*
X1901139Y4248200D01*
X1910638Y4245660D01*
G37*
G36*
X2700172Y4290060D02*
G01*
X2709926Y4290923D01*
X2719425Y4293463D01*
X2728315Y4297629D01*
X2736392Y4303268D01*
X2743352Y4310227D01*
X2748991Y4318254D01*
X2753106Y4327194D01*
X2755646Y4336643D01*
X2756509Y4346448D01*
X2755646Y4356252D01*
X2753106Y4365752D01*
X2748991Y4374642D01*
X2743352Y4382668D01*
X2736392Y4389628D01*
X2728315Y4395266D01*
X2719425Y4399432D01*
X2709926Y4401972D01*
X2700172Y4402836D01*
X2690368Y4401972D01*
X2680868Y4399432D01*
X2671978Y4395266D01*
X2663901Y4389628D01*
X2656992Y4382668D01*
X2651353Y4374642D01*
X2647188Y4365752D01*
X2644648Y4356252D01*
X2643784Y4346448D01*
X2644648Y4336643D01*
X2647188Y4327194D01*
X2651353Y4318254D01*
X2656992Y4310227D01*
X2663901Y4303268D01*
X2671978Y4297629D01*
X2680868Y4293463D01*
X2690368Y4290923D01*
G37*
G36*
X1679193Y4336237D02*
G01*
X1688998Y4337100D01*
X1698498Y4339640D01*
X1707388Y4343806D01*
X1715414Y4349445D01*
X1722374Y4356404D01*
X1728012Y4364431D01*
X1732178Y4373372D01*
X1734718Y4382820D01*
X1735582Y4392625D01*
X1734718Y4402429D01*
X1732178Y4411929D01*
X1728012Y4420819D01*
X1722374Y4428845D01*
X1715414Y4435805D01*
X1707388Y4441444D01*
X1698498Y4445609D01*
X1688998Y4448149D01*
X1679193Y4449013D01*
X1669389Y4448149D01*
X1659940Y4445609D01*
X1651000Y4441444D01*
X1642973Y4435805D01*
X1636014Y4428845D01*
X1630375Y4420819D01*
X1626209Y4411929D01*
X1623669Y4402429D01*
X1622806Y4392625D01*
X1623669Y4382820D01*
X1626209Y4373372D01*
X1630375Y4364431D01*
X1636014Y4356404D01*
X1642973Y4349445D01*
X1651000Y4343806D01*
X1659940Y4339640D01*
X1669389Y4337100D01*
G37*
G36*
X2489301Y4351070D02*
G01*
X2499106Y4351934D01*
X2508605Y4354474D01*
X2517495Y4358640D01*
X2525522Y4364278D01*
X2532481Y4371238D01*
X2538120Y4379264D01*
X2542286Y4388205D01*
X2544826Y4397654D01*
X2545689Y4407458D01*
X2544826Y4417263D01*
X2542286Y4426762D01*
X2538120Y4435652D01*
X2532481Y4443679D01*
X2525522Y4450638D01*
X2517495Y4456277D01*
X2508605Y4460443D01*
X2499106Y4462983D01*
X2489301Y4463846D01*
X2479497Y4462983D01*
X2470048Y4460443D01*
X2461107Y4456277D01*
X2453081Y4450638D01*
X2446121Y4443679D01*
X2440482Y4435652D01*
X2436317Y4426762D01*
X2433777Y4417263D01*
X2432913Y4407458D01*
X2433777Y4397654D01*
X2436317Y4388205D01*
X2440482Y4379264D01*
X2446121Y4371238D01*
X2453081Y4364278D01*
X2461107Y4358640D01*
X2470048Y4354474D01*
X2479497Y4351934D01*
G37*
G36*
X3200400Y4416552D02*
G01*
X3214065Y4417466D01*
X3227476Y4420158D01*
X3240430Y4424527D01*
X3252724Y4430572D01*
X3264103Y4438192D01*
X3274364Y4447235D01*
X3283407Y4457496D01*
X3291027Y4468876D01*
X3297072Y4481169D01*
X3301441Y4494123D01*
X3304133Y4507534D01*
X3305048Y4521200D01*
X3304133Y4534865D01*
X3301441Y4548276D01*
X3297072Y4561230D01*
X3291027Y4573524D01*
X3283407Y4584903D01*
X3274364Y4595164D01*
X3264103Y4604207D01*
X3252724Y4611827D01*
X3240430Y4617872D01*
X3227476Y4622241D01*
X3214065Y4624933D01*
X3200400Y4625848D01*
X3186734Y4624933D01*
X3173323Y4622241D01*
X3160369Y4617872D01*
X3148076Y4611827D01*
X3136696Y4604207D01*
X3126435Y4595164D01*
X3117392Y4584903D01*
X3109772Y4573524D01*
X3103727Y4561230D01*
X3099358Y4548276D01*
X3096666Y4534865D01*
X3095752Y4521200D01*
X3096666Y4507534D01*
X3099358Y4494123D01*
X3103727Y4481169D01*
X3109772Y4468876D01*
X3117392Y4457496D01*
X3126435Y4447235D01*
X3136696Y4438192D01*
X3148076Y4430572D01*
X3160369Y4424527D01*
X3173323Y4420158D01*
X3186734Y4417466D01*
G37*
G36*
X1652117Y4474718D02*
G01*
X1661871Y4475581D01*
X1671370Y4478121D01*
X1680260Y4482287D01*
X1688338Y4487926D01*
X1695297Y4494834D01*
X1700936Y4502912D01*
X1705051Y4511802D01*
X1707591Y4521301D01*
X1708454Y4531106D01*
X1707591Y4540859D01*
X1705051Y4550359D01*
X1700936Y4559249D01*
X1695297Y4567326D01*
X1688338Y4574286D01*
X1680260Y4579924D01*
X1671370Y4584039D01*
X1661871Y4586579D01*
X1652117Y4587443D01*
X1642313Y4586579D01*
X1632813Y4584039D01*
X1623923Y4579924D01*
X1621434Y4578146D01*
X1617776Y4576572D01*
X1613814Y4576470D01*
X1610156Y4577892D01*
X1607261Y4580636D01*
X1602384Y4587646D01*
X1595424Y4594606D01*
X1587347Y4600244D01*
X1578457Y4604410D01*
X1568958Y4606950D01*
X1559204Y4607814D01*
X1549400Y4606950D01*
X1539900Y4604410D01*
X1531010Y4600244D01*
X1522933Y4594606D01*
X1516024Y4587646D01*
X1510385Y4579620D01*
X1506220Y4570730D01*
X1503680Y4561230D01*
X1502816Y4551426D01*
X1503680Y4541621D01*
X1506220Y4532172D01*
X1510385Y4523232D01*
X1516024Y4515205D01*
X1522933Y4508246D01*
X1531010Y4502607D01*
X1539900Y4498441D01*
X1549400Y4495901D01*
X1559204Y4495038D01*
X1568958Y4495901D01*
X1578457Y4498441D01*
X1587347Y4502607D01*
X1589836Y4504334D01*
X1593494Y4505960D01*
X1597456Y4506061D01*
X1601165Y4504588D01*
X1604010Y4501845D01*
X1608937Y4494834D01*
X1615846Y4487926D01*
X1623923Y4482287D01*
X1632813Y4478121D01*
X1642313Y4475581D01*
G37*
G36*
X1016711Y4487926D02*
G01*
X1026515Y4488789D01*
X1036015Y4491329D01*
X1044905Y4495495D01*
X1052931Y4501134D01*
X1059891Y4508042D01*
X1065530Y4516120D01*
X1069695Y4525010D01*
X1072235Y4534509D01*
X1073099Y4544314D01*
X1072235Y4554067D01*
X1069695Y4563567D01*
X1065530Y4572457D01*
X1059891Y4580534D01*
X1052931Y4587494D01*
X1044905Y4593132D01*
X1036015Y4597247D01*
X1026515Y4599787D01*
X1016711Y4600651D01*
X1006906Y4599787D01*
X997458Y4597247D01*
X988517Y4593132D01*
X980490Y4587494D01*
X973531Y4580534D01*
X967892Y4572457D01*
X963726Y4563567D01*
X961186Y4554067D01*
X960323Y4544314D01*
X961186Y4534509D01*
X963726Y4525010D01*
X967892Y4516120D01*
X973531Y4508042D01*
X980490Y4501134D01*
X988517Y4495495D01*
X997458Y4491329D01*
X1006906Y4488789D01*
G37*
G36*
X2521559Y4562297D02*
G01*
X2531313Y4563160D01*
X2540812Y4565700D01*
X2549702Y4569866D01*
X2557780Y4575505D01*
X2564739Y4582464D01*
X2570378Y4590491D01*
X2574493Y4599432D01*
X2577033Y4608880D01*
X2577896Y4618685D01*
X2577033Y4628489D01*
X2574493Y4637989D01*
X2570378Y4646879D01*
X2564739Y4654905D01*
X2557780Y4661865D01*
X2549702Y4667504D01*
X2540812Y4671669D01*
X2531313Y4674209D01*
X2521559Y4675073D01*
X2511755Y4674209D01*
X2502255Y4671669D01*
X2493365Y4667504D01*
X2485288Y4661865D01*
X2478379Y4654905D01*
X2472740Y4646879D01*
X2468575Y4637989D01*
X2466035Y4628489D01*
X2465171Y4618685D01*
X2466035Y4608880D01*
X2468575Y4599432D01*
X2472740Y4590491D01*
X2478379Y4582464D01*
X2485288Y4575505D01*
X2493365Y4569866D01*
X2502255Y4565700D01*
X2511755Y4563160D01*
G37*
G36*
X1351483Y4640935D02*
G01*
X1361236Y4641799D01*
X1370736Y4644339D01*
X1379626Y4648504D01*
X1387703Y4654143D01*
X1394663Y4661103D01*
X1400302Y4669129D01*
X1404416Y4678070D01*
X1406956Y4687519D01*
X1407820Y4697323D01*
X1406956Y4707128D01*
X1404416Y4716627D01*
X1400302Y4725517D01*
X1394663Y4733544D01*
X1387703Y4740503D01*
X1379626Y4746142D01*
X1370736Y4750308D01*
X1361236Y4752848D01*
X1351483Y4753711D01*
X1341678Y4752848D01*
X1332179Y4750308D01*
X1323289Y4746142D01*
X1315212Y4740503D01*
X1308303Y4733544D01*
X1302664Y4725517D01*
X1298498Y4716627D01*
X1295958Y4707128D01*
X1295095Y4697323D01*
X1295958Y4687519D01*
X1298498Y4678070D01*
X1302664Y4669129D01*
X1308303Y4661103D01*
X1315212Y4654143D01*
X1323289Y4648504D01*
X1332179Y4644339D01*
X1341678Y4641799D01*
G37*
G36*
X3200400Y4670552D02*
G01*
X3214065Y4671466D01*
X3227476Y4674158D01*
X3240430Y4678527D01*
X3252724Y4684572D01*
X3264103Y4692192D01*
X3274364Y4701235D01*
X3283407Y4711496D01*
X3291027Y4722876D01*
X3297072Y4735169D01*
X3301441Y4748123D01*
X3304133Y4761534D01*
X3305048Y4775200D01*
X3304133Y4788865D01*
X3301441Y4802276D01*
X3297072Y4815230D01*
X3291027Y4827524D01*
X3283407Y4838903D01*
X3274364Y4849164D01*
X3264103Y4858207D01*
X3252724Y4865827D01*
X3240430Y4871872D01*
X3227476Y4876241D01*
X3214065Y4878933D01*
X3200400Y4879848D01*
X3186734Y4878933D01*
X3173323Y4876241D01*
X3160369Y4871872D01*
X3148076Y4865827D01*
X3136696Y4858207D01*
X3126435Y4849164D01*
X3117392Y4838903D01*
X3109772Y4827524D01*
X3103727Y4815230D01*
X3099358Y4802276D01*
X3096666Y4788865D01*
X3095752Y4775200D01*
X3096666Y4761534D01*
X3099358Y4748123D01*
X3103727Y4735169D01*
X3109772Y4722876D01*
X3117392Y4711496D01*
X3126435Y4701235D01*
X3136696Y4692192D01*
X3148076Y4684572D01*
X3160369Y4678527D01*
X3173323Y4674158D01*
X3186734Y4671466D01*
G37*
G36*
X2160625Y4682337D02*
G01*
X2170379Y4683201D01*
X2179878Y4685741D01*
X2188768Y4689906D01*
X2196846Y4695545D01*
X2203399Y4702149D01*
X2206701Y4704334D01*
X2210612Y4705096D01*
X2214473Y4704334D01*
X2217775Y4702149D01*
X2224379Y4695545D01*
X2232406Y4689906D01*
X2241346Y4685741D01*
X2250795Y4683201D01*
X2260600Y4682337D01*
X2270404Y4683201D01*
X2279853Y4685741D01*
X2288794Y4689906D01*
X2296820Y4695545D01*
X2303373Y4702098D01*
X2306675Y4704283D01*
X2310587Y4705096D01*
X2314448Y4704283D01*
X2317750Y4702098D01*
X2324303Y4695545D01*
X2332380Y4689906D01*
X2341270Y4685741D01*
X2350770Y4683201D01*
X2360574Y4682337D01*
X2370328Y4683201D01*
X2379827Y4685741D01*
X2388717Y4689906D01*
X2396794Y4695545D01*
X2403703Y4702454D01*
X2409342Y4710531D01*
X2413508Y4719421D01*
X2416048Y4728921D01*
X2416911Y4738674D01*
X2416048Y4748479D01*
X2413508Y4757978D01*
X2409342Y4766868D01*
X2403703Y4774946D01*
X2397150Y4781499D01*
X2394915Y4784801D01*
X2394153Y4788662D01*
X2394915Y4792573D01*
X2397150Y4795875D01*
X2403703Y4802428D01*
X2409342Y4810506D01*
X2413508Y4819396D01*
X2416048Y4828895D01*
X2416911Y4838649D01*
X2416048Y4848453D01*
X2413508Y4857953D01*
X2409342Y4866843D01*
X2403703Y4874920D01*
X2397150Y4881473D01*
X2394915Y4884775D01*
X2394153Y4888636D01*
X2394915Y4892548D01*
X2397150Y4895850D01*
X2403754Y4902454D01*
X2409393Y4910531D01*
X2413558Y4919421D01*
X2416098Y4928920D01*
X2416962Y4938674D01*
X2416098Y4948478D01*
X2413558Y4957978D01*
X2409393Y4966868D01*
X2403754Y4974945D01*
X2396845Y4981854D01*
X2388768Y4987493D01*
X2379878Y4991658D01*
X2370378Y4994198D01*
X2360625Y4995062D01*
X2350820Y4994198D01*
X2341321Y4991658D01*
X2332431Y4987493D01*
X2324354Y4981854D01*
X2317750Y4975199D01*
X2314448Y4973015D01*
X2310536Y4972253D01*
X2306675Y4973015D01*
X2303373Y4975199D01*
X2296769Y4981803D01*
X2288743Y4987442D01*
X2279802Y4991608D01*
X2270353Y4994148D01*
X2260549Y4995011D01*
X2250744Y4994148D01*
X2241296Y4991608D01*
X2232355Y4987442D01*
X2224328Y4981803D01*
X2217775Y4975250D01*
X2214473Y4973066D01*
X2210612Y4972304D01*
X2206701Y4973066D01*
X2203399Y4975250D01*
X2196846Y4981854D01*
X2188768Y4987493D01*
X2179878Y4991658D01*
X2170379Y4994198D01*
X2160625Y4995062D01*
X2150821Y4994198D01*
X2141321Y4991658D01*
X2132431Y4987493D01*
X2124354Y4981854D01*
X2117445Y4974945D01*
X2111806Y4966868D01*
X2107641Y4957978D01*
X2105101Y4948478D01*
X2104237Y4938674D01*
X2105101Y4928920D01*
X2107641Y4919421D01*
X2111806Y4910531D01*
X2117445Y4902454D01*
X2124049Y4895900D01*
X2126234Y4892598D01*
X2126996Y4888687D01*
X2126234Y4884826D01*
X2124049Y4881524D01*
X2117445Y4874920D01*
X2111806Y4866894D01*
X2107641Y4857953D01*
X2105101Y4848504D01*
X2104237Y4838700D01*
X2105101Y4828895D01*
X2107641Y4819446D01*
X2111806Y4810506D01*
X2117445Y4802479D01*
X2124049Y4795875D01*
X2126234Y4792573D01*
X2126996Y4788712D01*
X2126234Y4784801D01*
X2124049Y4781499D01*
X2117445Y4774946D01*
X2111806Y4766868D01*
X2107641Y4757978D01*
X2105101Y4748479D01*
X2104237Y4738674D01*
X2105101Y4728921D01*
X2107641Y4719421D01*
X2111806Y4710531D01*
X2117445Y4702454D01*
X2124354Y4695545D01*
X2132431Y4689906D01*
X2141321Y4685741D01*
X2150821Y4683201D01*
G37*
G36*
X1111351Y4685131D02*
G01*
X1121156Y4685995D01*
X1130655Y4688535D01*
X1139545Y4692700D01*
X1147572Y4698339D01*
X1154531Y4705299D01*
X1160170Y4713325D01*
X1164336Y4722266D01*
X1166876Y4731715D01*
X1167739Y4741519D01*
X1166876Y4751324D01*
X1164336Y4760823D01*
X1160170Y4769713D01*
X1154531Y4777740D01*
X1147572Y4784699D01*
X1139545Y4790338D01*
X1130655Y4794504D01*
X1121156Y4797044D01*
X1111351Y4797907D01*
X1101547Y4797044D01*
X1092098Y4794504D01*
X1083157Y4790338D01*
X1075131Y4784699D01*
X1068171Y4777740D01*
X1062532Y4769713D01*
X1058367Y4760823D01*
X1055827Y4751324D01*
X1054963Y4741519D01*
X1055827Y4731715D01*
X1058367Y4722266D01*
X1062532Y4713325D01*
X1068171Y4705299D01*
X1075131Y4698339D01*
X1083157Y4692700D01*
X1092098Y4688535D01*
X1101547Y4685995D01*
G37*
G36*
X2000504Y4821783D02*
G01*
X2010308Y4822647D01*
X2019807Y4825187D01*
X2028698Y4829352D01*
X2036724Y4834991D01*
X2043684Y4841951D01*
X2049322Y4849977D01*
X2053488Y4858918D01*
X2056028Y4868367D01*
X2056892Y4878171D01*
X2056028Y4887976D01*
X2053488Y4897475D01*
X2049322Y4906365D01*
X2043684Y4914392D01*
X2036724Y4921351D01*
X2028698Y4926990D01*
X2019807Y4931156D01*
X2010308Y4933696D01*
X2000504Y4934559D01*
X1990699Y4933696D01*
X1981250Y4931156D01*
X1972310Y4926990D01*
X1964283Y4921351D01*
X1957324Y4914392D01*
X1951685Y4906365D01*
X1947519Y4897475D01*
X1944979Y4887976D01*
X1944116Y4878171D01*
X1944979Y4868367D01*
X1947519Y4858918D01*
X1951685Y4849977D01*
X1957324Y4841951D01*
X1964283Y4834991D01*
X1972310Y4829352D01*
X1981250Y4825187D01*
X1990699Y4822647D01*
G37*
G36*
X1688744Y4841494D02*
G01*
X1698498Y4842357D01*
X1707997Y4844897D01*
X1716887Y4849063D01*
X1724964Y4854702D01*
X1731924Y4861661D01*
X1737563Y4869688D01*
X1741678Y4878628D01*
X1744218Y4888077D01*
X1745081Y4897882D01*
X1744218Y4907686D01*
X1741678Y4917186D01*
X1737563Y4926076D01*
X1731924Y4934102D01*
X1724964Y4941062D01*
X1716887Y4946700D01*
X1707997Y4950866D01*
X1698498Y4953406D01*
X1688744Y4954270D01*
X1678939Y4953406D01*
X1669440Y4950866D01*
X1660550Y4946700D01*
X1652473Y4941062D01*
X1645564Y4934102D01*
X1639925Y4926076D01*
X1635760Y4917186D01*
X1633220Y4907686D01*
X1632356Y4897882D01*
X1633220Y4888077D01*
X1635760Y4878628D01*
X1639925Y4869688D01*
X1645564Y4861661D01*
X1652473Y4854702D01*
X1660550Y4849063D01*
X1669440Y4844897D01*
X1678939Y4842357D01*
G37*
G36*
X2514346Y4853686D02*
G01*
X2524150Y4854549D01*
X2533650Y4857089D01*
X2542540Y4861255D01*
X2550566Y4866894D01*
X2557526Y4873802D01*
X2563164Y4881880D01*
X2567330Y4890770D01*
X2569870Y4900269D01*
X2570734Y4910074D01*
X2569870Y4919827D01*
X2567330Y4929327D01*
X2563164Y4938217D01*
X2557526Y4946294D01*
X2550566Y4953254D01*
X2542540Y4958892D01*
X2533650Y4963007D01*
X2524150Y4965547D01*
X2514346Y4966411D01*
X2504541Y4965547D01*
X2495092Y4963007D01*
X2486152Y4958892D01*
X2478125Y4953254D01*
X2471166Y4946294D01*
X2465527Y4938217D01*
X2461361Y4929327D01*
X2458821Y4919827D01*
X2457958Y4910074D01*
X2458821Y4900269D01*
X2461361Y4890770D01*
X2465527Y4881880D01*
X2471166Y4873802D01*
X2478125Y4866894D01*
X2486152Y4861255D01*
X2495092Y4857089D01*
X2504541Y4854549D01*
G37*
G36*
X3122218Y4924552D02*
G01*
X3278581Y4924552D01*
X3284880Y4925263D01*
X3290366Y4927193D01*
X3295243Y4930241D01*
X3299358Y4934356D01*
X3302406Y4939233D01*
X3304336Y4944719D01*
X3305048Y4951018D01*
X3305048Y5107381D01*
X3304336Y5113680D01*
X3302406Y5119166D01*
X3299358Y5124043D01*
X3295243Y5128158D01*
X3290366Y5131206D01*
X3284880Y5133136D01*
X3278581Y5133848D01*
X3122218Y5133848D01*
X3115919Y5133136D01*
X3110433Y5131206D01*
X3105556Y5128158D01*
X3101441Y5124043D01*
X3098393Y5119166D01*
X3096463Y5113680D01*
X3095752Y5107381D01*
X3095752Y4951018D01*
X3096463Y4944719D01*
X3098393Y4939233D01*
X3101441Y4934356D01*
X3105556Y4930241D01*
X3110433Y4927193D01*
X3115919Y4925263D01*
G37*
G36*
X1321968Y4940147D02*
G01*
X1331722Y4941011D01*
X1341221Y4943551D01*
X1350111Y4947716D01*
X1358188Y4953355D01*
X1365148Y4960264D01*
X1370787Y4968341D01*
X1374902Y4977231D01*
X1377442Y4986731D01*
X1378305Y4996535D01*
X1377442Y5006289D01*
X1374902Y5015788D01*
X1370787Y5024678D01*
X1365148Y5032756D01*
X1358188Y5039715D01*
X1350111Y5045354D01*
X1341221Y5049469D01*
X1331722Y5052009D01*
X1321968Y5052872D01*
X1312164Y5052009D01*
X1302664Y5049469D01*
X1293774Y5045354D01*
X1285697Y5039715D01*
X1278788Y5032756D01*
X1273149Y5024678D01*
X1268984Y5015788D01*
X1266444Y5006289D01*
X1265580Y4996535D01*
X1266444Y4986731D01*
X1268984Y4977231D01*
X1273149Y4968341D01*
X1278788Y4960264D01*
X1285697Y4953355D01*
X1293774Y4947716D01*
X1302664Y4943551D01*
X1312164Y4941011D01*
G37*
G36*
X2988259Y4991354D02*
G01*
X2998012Y4992217D01*
X3007512Y4994757D01*
X3016402Y4998923D01*
X3024479Y5004562D01*
X3031439Y5011521D01*
X3037078Y5019548D01*
X3041192Y5028488D01*
X3043732Y5037937D01*
X3044596Y5047742D01*
X3043732Y5057546D01*
X3041192Y5067046D01*
X3037078Y5075936D01*
X3031439Y5083962D01*
X3024479Y5090922D01*
X3016402Y5096560D01*
X3007512Y5100726D01*
X2998012Y5103266D01*
X2988259Y5104130D01*
X2978454Y5103266D01*
X2968955Y5100726D01*
X2960065Y5096560D01*
X2951988Y5090922D01*
X2945079Y5083962D01*
X2939440Y5075936D01*
X2935274Y5067046D01*
X2932734Y5057546D01*
X2931871Y5047742D01*
X2932734Y5037937D01*
X2935274Y5028488D01*
X2939440Y5019548D01*
X2945079Y5011521D01*
X2951988Y5004562D01*
X2960065Y4998923D01*
X2968955Y4994757D01*
X2978454Y4992217D01*
G37*
G36*
X1572260Y5189372D02*
G01*
X1582064Y5190236D01*
X1591564Y5192776D01*
X1600454Y5196941D01*
X1608480Y5202580D01*
X1615440Y5209540D01*
X1621078Y5217566D01*
X1625244Y5226507D01*
X1627784Y5235956D01*
X1628648Y5245760D01*
X1627784Y5255564D01*
X1625244Y5265064D01*
X1621078Y5273954D01*
X1615440Y5281980D01*
X1608480Y5288940D01*
X1600454Y5294579D01*
X1591564Y5298744D01*
X1582064Y5301284D01*
X1572260Y5302148D01*
X1562455Y5301284D01*
X1553006Y5298744D01*
X1547164Y5296001D01*
X1543253Y5295087D01*
X1539240Y5295747D01*
X1535836Y5297932D01*
X1533499Y5301284D01*
X1532737Y5305247D01*
X1532737Y5308447D01*
X1531010Y5319674D01*
X1527708Y5330545D01*
X1522780Y5340756D01*
X1516380Y5350103D01*
X1508658Y5358434D01*
X1499819Y5365496D01*
X1489964Y5371185D01*
X1479397Y5375300D01*
X1468374Y5377840D01*
X1456690Y5378704D01*
X1332433Y5378704D01*
X1320749Y5377840D01*
X1309674Y5375300D01*
X1299108Y5371185D01*
X1289304Y5365496D01*
X1280414Y5358434D01*
X1272743Y5350103D01*
X1266342Y5340756D01*
X1261414Y5330545D01*
X1258062Y5319674D01*
X1256385Y5308447D01*
X1256385Y5297119D01*
X1258062Y5285892D01*
X1261414Y5275072D01*
X1266342Y5264861D01*
X1272743Y5255514D01*
X1280414Y5247182D01*
X1289304Y5240121D01*
X1299108Y5234432D01*
X1309674Y5230317D01*
X1320749Y5227777D01*
X1332433Y5226913D01*
X1456690Y5226913D01*
X1468374Y5227777D01*
X1479397Y5230317D01*
X1489964Y5234432D01*
X1504289Y5242661D01*
X1508252Y5242966D01*
X1512062Y5241747D01*
X1515110Y5239105D01*
X1516888Y5235549D01*
X1519275Y5226507D01*
X1523441Y5217566D01*
X1529080Y5209540D01*
X1536039Y5202580D01*
X1544066Y5196941D01*
X1553006Y5192776D01*
X1562455Y5190236D01*
G37*
G36*
X2739390Y5216144D02*
G01*
X2749194Y5217007D01*
X2758694Y5219547D01*
X2767584Y5223713D01*
X2775610Y5229352D01*
X2782570Y5236260D01*
X2788208Y5244338D01*
X2792374Y5253228D01*
X2794914Y5262727D01*
X2795778Y5272532D01*
X2794914Y5282285D01*
X2792374Y5291785D01*
X2788208Y5300675D01*
X2782570Y5308752D01*
X2775610Y5315712D01*
X2767584Y5321350D01*
X2758694Y5325465D01*
X2749194Y5328005D01*
X2739390Y5328869D01*
X2729585Y5328005D01*
X2720136Y5325465D01*
X2711196Y5321350D01*
X2703169Y5315712D01*
X2696210Y5308752D01*
X2690571Y5300675D01*
X2686405Y5291785D01*
X2683865Y5282285D01*
X2683002Y5272532D01*
X2683865Y5262727D01*
X2686405Y5253228D01*
X2690571Y5244338D01*
X2696210Y5236260D01*
X2703169Y5229352D01*
X2711196Y5223713D01*
X2720136Y5219547D01*
X2729585Y5217007D01*
G37*
G36*
X997407Y5226913D02*
G01*
X1121664Y5226913D01*
X1133348Y5227777D01*
X1144422Y5230317D01*
X1154988Y5234432D01*
X1164793Y5240121D01*
X1173683Y5247182D01*
X1181354Y5255514D01*
X1187754Y5264861D01*
X1192682Y5275072D01*
X1196035Y5285943D01*
X1197711Y5297119D01*
X1197711Y5308498D01*
X1196035Y5319674D01*
X1192682Y5330545D01*
X1187754Y5340756D01*
X1181354Y5350103D01*
X1173683Y5358434D01*
X1164793Y5365496D01*
X1154988Y5371185D01*
X1144422Y5375300D01*
X1133348Y5377840D01*
X1121664Y5378704D01*
X997407Y5378704D01*
X985723Y5377840D01*
X974699Y5375300D01*
X964133Y5371185D01*
X954328Y5365496D01*
X945438Y5358434D01*
X937717Y5350103D01*
X931316Y5340756D01*
X926439Y5330545D01*
X923086Y5319674D01*
X921359Y5308498D01*
X921359Y5297119D01*
X923086Y5285943D01*
X926439Y5275072D01*
X931316Y5264861D01*
X937717Y5255514D01*
X945438Y5247182D01*
X954328Y5240121D01*
X964133Y5234432D01*
X974699Y5230317D01*
X985723Y5227777D01*
G37*
G36*
X1935937Y5385054D02*
G01*
X1945690Y5385917D01*
X1955190Y5388457D01*
X1964080Y5392623D01*
X1972157Y5398262D01*
X1979117Y5405170D01*
X1984756Y5413248D01*
X1988870Y5422138D01*
X1991410Y5431637D01*
X1992274Y5441442D01*
X1991410Y5451195D01*
X1988870Y5460695D01*
X1984756Y5469585D01*
X1979117Y5477662D01*
X1972157Y5484622D01*
X1964080Y5490260D01*
X1955190Y5494375D01*
X1945690Y5496915D01*
X1935937Y5497779D01*
X1926132Y5496915D01*
X1916633Y5494375D01*
X1907743Y5490260D01*
X1899666Y5484622D01*
X1892757Y5477662D01*
X1887118Y5469585D01*
X1882952Y5460695D01*
X1880412Y5451195D01*
X1879549Y5441442D01*
X1880412Y5431637D01*
X1882952Y5422138D01*
X1887118Y5413248D01*
X1892757Y5405170D01*
X1899666Y5398262D01*
X1907743Y5392623D01*
X1916633Y5388457D01*
X1926132Y5385917D01*
G37*
G36*
X2560472Y5459679D02*
G01*
X2570276Y5460542D01*
X2579776Y5463082D01*
X2588666Y5467248D01*
X2596692Y5472887D01*
X2603652Y5479846D01*
X2609291Y5487873D01*
X2613456Y5496814D01*
X2615996Y5506262D01*
X2616860Y5516067D01*
X2615996Y5525871D01*
X2613456Y5535371D01*
X2609291Y5544261D01*
X2603652Y5552287D01*
X2596692Y5559247D01*
X2588666Y5564886D01*
X2579776Y5569051D01*
X2570276Y5571591D01*
X2560472Y5572455D01*
X2550668Y5571591D01*
X2541219Y5569051D01*
X2532278Y5564886D01*
X2524252Y5559247D01*
X2517292Y5552287D01*
X2511653Y5544261D01*
X2507488Y5535371D01*
X2504948Y5525871D01*
X2504084Y5516067D01*
X2504948Y5506262D01*
X2507488Y5496814D01*
X2511653Y5487873D01*
X2517292Y5479846D01*
X2524252Y5472887D01*
X2532278Y5467248D01*
X2541219Y5463082D01*
X2550668Y5460542D01*
G37*
G36*
X3166618Y5607812D02*
G01*
X3176371Y5608675D01*
X3185871Y5611215D01*
X3194761Y5615381D01*
X3202838Y5621020D01*
X3209798Y5627979D01*
X3215436Y5636006D01*
X3219551Y5644946D01*
X3222091Y5654395D01*
X3222955Y5664200D01*
X3222091Y5674004D01*
X3219551Y5683504D01*
X3215436Y5692394D01*
X3209798Y5700420D01*
X3202838Y5707380D01*
X3194761Y5713018D01*
X3185871Y5717184D01*
X3176371Y5719724D01*
X3166618Y5720588D01*
X3156813Y5719724D01*
X3147314Y5717184D01*
X3138424Y5713018D01*
X3130346Y5707380D01*
X3123438Y5700420D01*
X3117799Y5692394D01*
X3113633Y5683504D01*
X3111093Y5674004D01*
X3110230Y5664200D01*
X3111093Y5654395D01*
X3113633Y5644946D01*
X3117799Y5636006D01*
X3123438Y5627979D01*
X3130346Y5621020D01*
X3138424Y5615381D01*
X3147314Y5611215D01*
X3156813Y5608675D01*
G37*
G36*
X1546656Y5711444D02*
G01*
X1556410Y5712307D01*
X1565910Y5714847D01*
X1574800Y5719013D01*
X1582877Y5724652D01*
X1589836Y5731560D01*
X1595475Y5739638D01*
X1599590Y5748528D01*
X1602130Y5758027D01*
X1602994Y5767832D01*
X1602130Y5777585D01*
X1599590Y5787085D01*
X1595475Y5795975D01*
X1589836Y5804052D01*
X1582877Y5811012D01*
X1574800Y5816650D01*
X1565910Y5820765D01*
X1556410Y5823305D01*
X1546656Y5824169D01*
X1536852Y5823305D01*
X1527352Y5820765D01*
X1518462Y5816650D01*
X1510385Y5811012D01*
X1503476Y5804052D01*
X1497838Y5795975D01*
X1493672Y5787085D01*
X1491132Y5777585D01*
X1490268Y5767832D01*
X1491132Y5758027D01*
X1493672Y5748528D01*
X1497838Y5739638D01*
X1503476Y5731560D01*
X1510385Y5724652D01*
X1518462Y5719013D01*
X1527352Y5714847D01*
X1536852Y5712307D01*
G37*
G36*
X2120900Y5714288D02*
G01*
X2130704Y5715152D01*
X2140204Y5717692D01*
X2149094Y5721858D01*
X2157120Y5727496D01*
X2164080Y5734456D01*
X2169718Y5742482D01*
X2173884Y5751423D01*
X2176424Y5760872D01*
X2177288Y5770676D01*
X2176424Y5780481D01*
X2173884Y5789980D01*
X2169718Y5798870D01*
X2164080Y5806897D01*
X2157120Y5813856D01*
X2149094Y5819495D01*
X2140204Y5823661D01*
X2130704Y5826201D01*
X2120900Y5827064D01*
X2111095Y5826201D01*
X2101646Y5823661D01*
X2092706Y5819495D01*
X2084679Y5813856D01*
X2077720Y5806897D01*
X2072081Y5798870D01*
X2067915Y5789980D01*
X2065375Y5780481D01*
X2064512Y5770676D01*
X2065375Y5760872D01*
X2067915Y5751423D01*
X2072081Y5742482D01*
X2077720Y5734456D01*
X2084679Y5727496D01*
X2092706Y5721858D01*
X2101646Y5717692D01*
X2111095Y5715152D01*
G37*
G36*
X3098800Y5801410D02*
G01*
X3108604Y5802274D01*
X3118104Y5804814D01*
X3126994Y5808980D01*
X3135020Y5814618D01*
X3141980Y5821527D01*
X3147618Y5829604D01*
X3151784Y5838494D01*
X3154324Y5847994D01*
X3155188Y5857798D01*
X3154324Y5867552D01*
X3151784Y5877052D01*
X3147618Y5885942D01*
X3141980Y5894019D01*
X3135020Y5900978D01*
X3126994Y5906617D01*
X3118104Y5910732D01*
X3108604Y5913272D01*
X3098800Y5914136D01*
X3088995Y5913272D01*
X3079546Y5910732D01*
X3070606Y5906617D01*
X3062579Y5900978D01*
X3055620Y5894019D01*
X3049981Y5885942D01*
X3045815Y5877052D01*
X3043275Y5867552D01*
X3042412Y5857798D01*
X3043275Y5847994D01*
X3045815Y5838494D01*
X3049981Y5829604D01*
X3055620Y5821527D01*
X3062579Y5814618D01*
X3070606Y5808980D01*
X3079546Y5804814D01*
X3088995Y5802274D01*
G37*
G36*
X1557629Y5961430D02*
G01*
X1567434Y5962294D01*
X1576933Y5964834D01*
X1585823Y5969000D01*
X1593850Y5974638D01*
X1600809Y5981547D01*
X1606448Y5989624D01*
X1610614Y5998514D01*
X1613154Y6008014D01*
X1614017Y6017818D01*
X1613154Y6027572D01*
X1610614Y6037072D01*
X1606448Y6045962D01*
X1600809Y6054039D01*
X1593850Y6060998D01*
X1585823Y6066637D01*
X1576933Y6070752D01*
X1567434Y6073292D01*
X1557629Y6074156D01*
X1547825Y6073292D01*
X1538376Y6070752D01*
X1529435Y6066637D01*
X1521409Y6060998D01*
X1514449Y6054039D01*
X1508810Y6045962D01*
X1504645Y6037072D01*
X1502105Y6027572D01*
X1501241Y6017818D01*
X1502105Y6008014D01*
X1504645Y5998514D01*
X1508810Y5989624D01*
X1514449Y5981547D01*
X1521409Y5974638D01*
X1529435Y5969000D01*
X1538376Y5964834D01*
X1547825Y5962294D01*
G37*

%LPD*%
D10*
G01*
X3200400Y5029200D03*
D11*
G01*
X3200400Y4775200D03*
G01*
X3200400Y4521200D03*
D12*
G01*
X1394561Y5302808D03*
G01*
X1394561Y6482791D03*
G01*
X1059561Y6482791D03*
G01*
X1059561Y5302808D03*
D13*
G01*
X2160600Y4838700D03*
G01*
X2160600Y4738700D03*
G01*
X2360549Y4838674D03*
G01*
X2360549Y4738700D03*
G01*
X2160600Y4938699D03*
G01*
X2360599Y4938699D03*
G01*
X2260600Y4838700D03*
G01*
X2260549Y4938648D03*
G01*
X2260600Y4738700D03*
D14*
G01*
X2294359Y5503776D03*
G01*
X1317195Y5074820D03*
G01*
X2521536Y4618687D03*
G01*
X1679196Y4392627D03*
G01*
X1304063Y4278378D03*
G01*
X2120902Y5770679D03*
G01*
X1109195Y3946679D03*
G01*
X2739392Y5272509D03*
G01*
X2811071Y4170911D03*
G01*
X2700149Y4346450D03*
G01*
X3098802Y5857775D03*
G01*
X1935914Y5441419D03*
G01*
X1920420Y4301187D03*
G01*
X2489304Y4407461D03*
G01*
X2399819Y4167278D03*
G01*
X1642976Y4085313D03*
G01*
X3166595Y5664202D03*
G01*
X2560474Y5516069D03*
G01*
X2000506Y4878174D03*
G01*
X1572262Y5245762D03*
G01*
X1688721Y4897884D03*
G01*
X2514348Y4910051D03*
G01*
X2988236Y5047744D03*
G01*
X1321945Y4996512D03*
G01*
X1557632Y6017795D03*
G01*
X1546633Y5767809D03*
G01*
X1016713Y4544291D03*
G01*
X1351460Y4697326D03*
G01*
X1559181Y4551428D03*
G01*
X1652094Y4531083D03*
G01*
X1111354Y4741522D03*
M02*
