G04 Layer: TopSilkscreenLayer*
G04 EasyEDA v6.5.38, 2023-12-01 04:26:50*
G04 a14715bac62b4674aedb9b46894eb211,1c5aeea7b1c04971ae88c05baabc065b,10*
G04 Gerber Generator version 0.2*
G04 Scale: 100 percent, Rotated: No, Reflected: No *
G04 Dimensions in millimeters *
G04 leading zeros omitted , absolute positions ,4 integer and 5 decimal *
%FSLAX45Y45*%
%MOMM*%

%ADD10C,0.1524*%
%ADD11C,0.2540*%
%ADD12C,0.2032*%
%ADD13C,0.1500*%
%ADD14C,0.3000*%
%ADD15C,0.0118*%

%LPD*%
D10*
X1686585Y6161443D02*
G01*
X1795551Y6161443D01*
X1686585Y6161443D02*
G01*
X1686585Y6197765D01*
X1691665Y6213513D01*
X1702079Y6223673D01*
X1712493Y6229007D01*
X1728241Y6234087D01*
X1754149Y6234087D01*
X1769643Y6229007D01*
X1780057Y6223673D01*
X1790471Y6213513D01*
X1795551Y6197765D01*
X1795551Y6161443D01*
X1707413Y6268377D02*
G01*
X1702079Y6278791D01*
X1686585Y6294539D01*
X1795551Y6294539D01*
X2207285Y6174143D02*
G01*
X2316251Y6174143D01*
X2207285Y6174143D02*
G01*
X2207285Y6210465D01*
X2212365Y6226213D01*
X2222779Y6236373D01*
X2233193Y6241707D01*
X2248941Y6246787D01*
X2274849Y6246787D01*
X2290343Y6241707D01*
X2300757Y6236373D01*
X2311171Y6226213D01*
X2316251Y6210465D01*
X2316251Y6174143D01*
X2233193Y6286411D02*
G01*
X2228113Y6286411D01*
X2217699Y6291491D01*
X2212365Y6296825D01*
X2207285Y6307239D01*
X2207285Y6327813D01*
X2212365Y6338227D01*
X2217699Y6343561D01*
X2228113Y6348641D01*
X2238527Y6348641D01*
X2248941Y6343561D01*
X2264435Y6333147D01*
X2316251Y6281077D01*
X2316251Y6353975D01*
X3468115Y4800600D02*
G01*
X3359150Y4800600D01*
X3468115Y4727955D02*
G01*
X3359150Y4727955D01*
X3416300Y4800600D02*
G01*
X3416300Y4727955D01*
X3442208Y4688331D02*
G01*
X3447288Y4688331D01*
X3457702Y4683252D01*
X3463036Y4677918D01*
X3468115Y4667504D01*
X3468115Y4646929D01*
X3463036Y4636515D01*
X3457702Y4631181D01*
X3447288Y4626102D01*
X3436874Y4626102D01*
X3426459Y4631181D01*
X3410965Y4641595D01*
X3359150Y4693665D01*
X3359150Y4620768D01*
X3303777Y6130544D02*
G01*
X3293363Y6120129D01*
X3288284Y6104636D01*
X3288284Y6083807D01*
X3293363Y6068313D01*
X3303777Y6057900D01*
X3314191Y6057900D01*
X3324606Y6062979D01*
X3329940Y6068313D01*
X3335020Y6078728D01*
X3345434Y6109970D01*
X3350513Y6120129D01*
X3355847Y6125463D01*
X3366261Y6130544D01*
X3381756Y6130544D01*
X3392170Y6120129D01*
X3397250Y6104636D01*
X3397250Y6083807D01*
X3392170Y6068313D01*
X3381756Y6057900D01*
X3288284Y6164834D02*
G01*
X3397250Y6190995D01*
X3288284Y6216904D02*
G01*
X3397250Y6190995D01*
X3288284Y6216904D02*
G01*
X3397250Y6242812D01*
X3288284Y6268720D02*
G01*
X3397250Y6242812D01*
X3314191Y6308344D02*
G01*
X3309111Y6308344D01*
X3298697Y6313423D01*
X3293363Y6318757D01*
X3288284Y6329171D01*
X3288284Y6350000D01*
X3293363Y6360160D01*
X3298697Y6365494D01*
X3309111Y6370573D01*
X3319525Y6370573D01*
X3329940Y6365494D01*
X3345434Y6355079D01*
X3397250Y6303010D01*
X3397250Y6375907D01*
X2285987Y4316971D02*
G01*
X2285987Y4394949D01*
X2280907Y4410443D01*
X2270493Y4420857D01*
X2254745Y4425937D01*
X2244331Y4425937D01*
X2228837Y4420857D01*
X2218423Y4410443D01*
X2213343Y4394949D01*
X2213343Y4316971D01*
X2173719Y4342879D02*
G01*
X2173719Y4337799D01*
X2168639Y4327385D01*
X2163305Y4322051D01*
X2152891Y4316971D01*
X2132317Y4316971D01*
X2121903Y4322051D01*
X2116569Y4327385D01*
X2111489Y4337799D01*
X2111489Y4348213D01*
X2116569Y4358627D01*
X2126983Y4374121D01*
X2179053Y4425937D01*
X2106155Y4425937D01*
X1715515Y4851400D02*
G01*
X1637537Y4851400D01*
X1622044Y4846320D01*
X1611629Y4835905D01*
X1606550Y4820157D01*
X1606550Y4809744D01*
X1611629Y4794250D01*
X1622044Y4783836D01*
X1637537Y4778755D01*
X1715515Y4778755D01*
X1715515Y4734052D02*
G01*
X1715515Y4676902D01*
X1673860Y4707889D01*
X1673860Y4692395D01*
X1668779Y4681981D01*
X1663700Y4676902D01*
X1647952Y4671568D01*
X1637537Y4671568D01*
X1622044Y4676902D01*
X1611629Y4687315D01*
X1606550Y4702810D01*
X1606550Y4718304D01*
X1611629Y4734052D01*
X1616710Y4739131D01*
X1627123Y4744465D01*
X2437384Y5549900D02*
G01*
X2515361Y5549900D01*
X2530856Y5554979D01*
X2541270Y5565394D01*
X2546350Y5581142D01*
X2546350Y5591555D01*
X2541270Y5607050D01*
X2530856Y5617463D01*
X2515361Y5622544D01*
X2437384Y5622544D01*
X2437384Y5708904D02*
G01*
X2510027Y5656834D01*
X2510027Y5734812D01*
X2437384Y5708904D02*
G01*
X2546350Y5708904D01*
X1673418Y5914821D02*
G01*
X1595440Y5914821D01*
X1579946Y5909741D01*
X1569532Y5899327D01*
X1564452Y5883579D01*
X1564452Y5873165D01*
X1569532Y5857671D01*
X1579946Y5847257D01*
X1595440Y5842177D01*
X1673418Y5842177D01*
X1673418Y5745403D02*
G01*
X1673418Y5797473D01*
X1626682Y5802553D01*
X1631762Y5797473D01*
X1637096Y5781725D01*
X1637096Y5766231D01*
X1631762Y5750737D01*
X1621602Y5740323D01*
X1605854Y5734989D01*
X1595440Y5734989D01*
X1579946Y5740323D01*
X1569532Y5750737D01*
X1564452Y5766231D01*
X1564452Y5781725D01*
X1569532Y5797473D01*
X1574612Y5802553D01*
X1585026Y5807887D01*
X3358134Y4065015D02*
G01*
X3280156Y4065015D01*
X3264661Y4059936D01*
X3254247Y4049521D01*
X3249168Y4033773D01*
X3249168Y4023360D01*
X3254247Y4007865D01*
X3264661Y3997452D01*
X3280156Y3992371D01*
X3358134Y3992371D01*
X3342640Y3895597D02*
G01*
X3353054Y3900931D01*
X3358134Y3916426D01*
X3358134Y3926839D01*
X3353054Y3942334D01*
X3337306Y3952747D01*
X3311397Y3958081D01*
X3285490Y3958081D01*
X3264661Y3952747D01*
X3254247Y3942334D01*
X3249168Y3926839D01*
X3249168Y3921505D01*
X3254247Y3906012D01*
X3264661Y3895597D01*
X3280156Y3890518D01*
X3285490Y3890518D01*
X3300984Y3895597D01*
X3311397Y3906012D01*
X3316477Y3921505D01*
X3316477Y3926839D01*
X3311397Y3942334D01*
X3300984Y3952747D01*
X3285490Y3958081D01*
X1840484Y5486400D02*
G01*
X1918462Y5486400D01*
X1933956Y5491479D01*
X1944370Y5501894D01*
X1949450Y5517642D01*
X1949450Y5528055D01*
X1944370Y5543550D01*
X1933956Y5553963D01*
X1918462Y5559044D01*
X1840484Y5559044D01*
X1840484Y5666231D02*
G01*
X1949450Y5614162D01*
X1840484Y5593334D02*
G01*
X1840484Y5666231D01*
X1206500Y3643884D02*
G01*
X1133855Y3752850D01*
X1133855Y3643884D02*
G01*
X1206500Y3752850D01*
X1099565Y3664712D02*
G01*
X1089152Y3659378D01*
X1073404Y3643884D01*
X1073404Y3752850D01*
G36*
X3182061Y6410401D02*
G01*
X3182061Y6379921D01*
X3260547Y6379921D01*
X3260547Y6410401D01*
G37*
G36*
X2937052Y6410401D02*
G01*
X2937052Y6379921D01*
X3015538Y6379921D01*
X3015538Y6410401D01*
G37*
D11*
X1869188Y5916935D02*
G01*
X1869188Y5928611D01*
X1866900Y5930900D01*
X1854212Y5930900D01*
X1841507Y5916935D01*
X1841507Y5943605D01*
X2169406Y5916935D02*
G01*
X2169406Y5928606D01*
X2171700Y5930900D01*
X2197107Y5930900D01*
X2169406Y5895941D02*
G01*
X2169406Y5916935D01*
X2162421Y6438897D02*
G01*
X2197107Y6438897D01*
X2197107Y6400805D01*
X1866907Y6438897D02*
G01*
X1876193Y6438897D01*
X1841525Y5943511D02*
G01*
X1841525Y6400711D01*
X1841525Y6400711D01*
X1841507Y6438897D01*
X1866907Y6438897D01*
X2169406Y5916935D02*
G01*
X2197094Y5916935D01*
X2197107Y6400805D02*
G01*
X2197107Y5917026D01*
X2169406Y5895941D02*
G01*
X2197094Y5895941D01*
X2197094Y5917026D01*
X1841507Y5943605D02*
G01*
X1841507Y5916935D01*
X1869188Y5916935D02*
G01*
X1854207Y5916935D01*
X1841507Y5916935D02*
G01*
X1841507Y5895936D01*
X1869188Y5895936D01*
X1869188Y5895936D02*
G01*
X1869188Y5916935D01*
X1917707Y6223005D02*
G01*
X2120907Y6223005D01*
X2019307Y6057905D02*
G01*
X2019307Y6286505D01*
X1917702Y6121410D02*
G01*
X2120907Y6121405D01*
X1917694Y6223022D02*
G01*
X2019294Y6121422D01*
X2120894Y6223022D01*
X2389888Y5929635D02*
G01*
X2389888Y5941311D01*
X2387600Y5943600D01*
X2374912Y5943600D01*
X2362207Y5929635D01*
X2362207Y5956305D01*
X2690106Y5929635D02*
G01*
X2690106Y5941306D01*
X2692400Y5943600D01*
X2717807Y5943600D01*
X2690106Y5908641D02*
G01*
X2690106Y5929635D01*
X2683121Y6451597D02*
G01*
X2717807Y6451597D01*
X2717807Y6413505D01*
X2387607Y6451597D02*
G01*
X2396893Y6451597D01*
X2362225Y5956211D02*
G01*
X2362225Y6413411D01*
X2362225Y6413411D01*
X2362207Y6451597D01*
X2387607Y6451597D01*
X2690106Y5929635D02*
G01*
X2717794Y5929635D01*
X2717807Y6413505D02*
G01*
X2717807Y5929726D01*
X2690106Y5908641D02*
G01*
X2717794Y5908641D01*
X2717794Y5929726D01*
X2362207Y5956305D02*
G01*
X2362207Y5929635D01*
X2389888Y5929635D02*
G01*
X2374907Y5929635D01*
X2362207Y5929635D02*
G01*
X2362207Y5908636D01*
X2389888Y5908636D01*
X2389888Y5908636D02*
G01*
X2389888Y5929635D01*
X2438407Y6235705D02*
G01*
X2641607Y6235705D01*
X2540007Y6070605D02*
G01*
X2540007Y6299205D01*
X2438402Y6134110D02*
G01*
X2641607Y6134105D01*
X2438394Y6235722D02*
G01*
X2539994Y6134122D01*
X2641594Y6235722D01*
D12*
X3327400Y4648200D02*
G01*
X3327400Y4394200D01*
X3075940Y4394200D01*
X3075940Y5156200D01*
X3327400Y5156200D01*
X3327400Y4648200D01*
D10*
X3252919Y6387520D02*
G01*
X3252919Y5982279D01*
X3252919Y5982279D02*
G01*
X3187120Y5982279D01*
X2944680Y6387520D02*
G01*
X2944680Y5982279D01*
X2944680Y5982279D02*
G01*
X3010479Y5982279D01*
X1970341Y4481070D02*
G01*
X1902970Y4481070D01*
X1902970Y4548441D01*
X1970341Y5196314D02*
G01*
X1902970Y5196314D01*
X1902970Y5128945D01*
X2550845Y4481070D02*
G01*
X2618214Y4481070D01*
X2618214Y4548441D01*
X2550845Y5196314D02*
G01*
X2618214Y5196314D01*
X2618214Y5128945D01*
X1041659Y5078620D02*
G01*
X1345940Y5078620D01*
X1345940Y4573379D01*
X1041659Y4573379D01*
X1041659Y5078620D01*
D11*
X3229899Y5287200D02*
G01*
X3098800Y5287200D01*
X2789900Y5287200D02*
G01*
X2921000Y5287200D01*
X3229899Y5295168D02*
G01*
X3229899Y5287200D01*
X3229899Y5422168D02*
G01*
X3229899Y5398231D01*
X3229899Y5549168D02*
G01*
X3229899Y5525231D01*
X3229899Y5676168D02*
G01*
X3229899Y5652231D01*
X3229899Y5787199D02*
G01*
X3229899Y5779231D01*
X2789900Y5295168D02*
G01*
X2789900Y5287200D01*
X2789900Y5422168D02*
G01*
X2789900Y5398231D01*
X2789900Y5549168D02*
G01*
X2789900Y5525231D01*
X2789900Y5676168D02*
G01*
X2789900Y5652231D01*
X2789900Y5787199D02*
G01*
X2789900Y5779231D01*
X2789900Y5787199D02*
G01*
X3229899Y5787199D01*
X1475051Y6411945D02*
G01*
X1475051Y6318417D01*
X1187762Y6514797D02*
G01*
X1266337Y6514797D01*
X926736Y5282803D02*
G01*
X799048Y5282803D01*
X799048Y6514797D01*
X931336Y6514797D01*
X1261737Y5282803D02*
G01*
X1192364Y5282803D01*
X1479049Y5467189D02*
G01*
X1479049Y5372516D01*
X2265911Y5629899D02*
G01*
X2265911Y5469895D01*
X1975909Y5629899D02*
G01*
X1975909Y5469895D01*
X1975909Y5469895D02*
G01*
X1978345Y5469895D01*
X2073465Y5469895D02*
G01*
X2168349Y5469895D01*
X2263467Y5469895D02*
G01*
X2265911Y5469895D01*
X2265911Y5629899D02*
G01*
X2263467Y5629899D01*
X1978345Y5629899D02*
G01*
X1975909Y5629899D01*
D10*
X1483959Y4190659D02*
G01*
X1483959Y3784940D01*
X878240Y3784940D01*
X878240Y4190659D01*
X1483959Y4190659D01*
X1506819Y4047799D02*
G01*
X1506819Y4213519D01*
X1301099Y4213519D01*
D11*
G75*
G01*
X3098800Y5287200D02*
G03*
X2921000Y5287264I-88900J32D01*
G75*
G01
X3188792Y6184900D02*
G03X3188792Y6184900I-89992J0D01*
D13*
G75*
G01
X2672055Y4578680D02*
G03X2672055Y4578680I-7493J0D01*
D14*
G75*
G01
X1131900Y5016500D02*
G03X1131900Y5016500I-15011J0D01*
G75*
G01
X931570Y5091151D02*
G03X931570Y5091151I-15011J0D01*
G75*
G01
X3295421Y5273040D02*
G03X3295421Y5273040I-15011J0D01*
D11*
G75*
G01
X2293620Y5669890D02*
G03X2293620Y5669890I-12700J0D01*
M02*
